<mxfile host="app.diagrams.net" agent="Mozilla/5.0 (Windows NT 10.0; Win64; x64) AppleWebKit/537.36 (KHTML, like Gecko) Chrome/133.0.0.0 Safari/537.36" version="26.1.0">
  <diagram name="第 1 页" id="yBA6vnDruAd7Dzr6H5Fe">
    <mxGraphModel dx="1050" dy="1794" grid="1" gridSize="10" guides="1" tooltips="1" connect="1" arrows="1" fold="1" page="1" pageScale="1" pageWidth="827" pageHeight="1169" math="0" shadow="0">
      <root>
        <mxCell id="0" />
        <mxCell id="1" parent="0" />
        <mxCell id="qHw1RcTZy6Dsvkf9iHYT-1" value="" style="shape=internalStorage;whiteSpace=wrap;html=1;backgroundOutline=1;fillColor=#f5f5f5;strokeColor=#666666;dx=60;dy=20;fontColor=#333333;" vertex="1" parent="1">
          <mxGeometry x="40" y="60" width="710" height="190" as="geometry" />
        </mxCell>
        <mxCell id="qHw1RcTZy6Dsvkf9iHYT-2" value="&#xa;&lt;article&gt;&lt;div content=&quot;%7B%22shapes%22%3A%5B%7B%22type%22%3A%22DMLPreset%22%2C%22x%22%3A1275.2438311468427%2C%22y%22%3A-436.65992343674486%2C%22width%22%3A414.88235045565216%2C%22height%22%3A103.91976142427097%2C%22angle%22%3A0%2C%22id%22%3A%22vPAeE_-KT%22%2C%22fill%22%3A%7B%22id%22%3A%22uPSDF_m4-f%22%2C%22type%22%3A%22SolidColor%22%2C%22content%22%3A%7B%22value%22%3A%22fl1%22%2C%22lumMod%22%3A20%2C%22lumOff%22%3A80%7D%7D%2C%22fillRule%22%3A%22nonzero%22%2C%22stroke%22%3A%7B%22id%22%3A%224fyxNNyTlK%22%2C%22type%22%3A%22SolidColor%22%2C%22content%22%3A%7B%22value%22%3A%22sk1%22%2C%22lumMod%22%3A80%2C%22lumOff%22%3A20%7D%7D%2C%22strokeWidth%22%3A1%2C%22strokeDash%22%3A%5B%5D%2C%22strokeLinecap%22%3A%22round%22%2C%22strokeLinejoin%22%3A%22round%22%2C%22opacity%22%3A1%2C%22filter%22%3A%22%22%2C%22text%22%3A%7B%22default%22%3A%7B%22type%22%3A%22rich-text%22%2C%22children%22%3A%5B%7B%22type%22%3A%22paragraph%22%2C%22children%22%3A%5B%7B%22text%22%3A%22%20%5C%22%E6%83%85%E6%8A%A5%E7%AE%A1%E7%90%86%5C%22%E6%A8%A1%E5%9D%97%E6%A0%A1%E9%AA%8C%E6%95%B0%E6%8D%AE%E6%A0%BC%E5%BC%8F%EF%BC%8C%E5%B0%81%E8%A3%85%E8%AF%B7%E6%B1%82%E4%BD%93%22%2C%22fontSize%22%3A14%2C%22color%22%3A%7B%22id%22%3A%22SyXuNZhYOv%22%2C%22type%22%3A%22SolidColor%22%2C%22content%22%3A%7B%22value%22%3A%22tx1%22%2C%22lumMod%22%3A80%7D%7D%2C%22link%22%3A%7B%22color%22%3A%7B%22id%22%3A%22ah8O_I4DOL%22%2C%22type%22%3A%22SolidColor%22%2C%22content%22%3A%7B%22value%22%3A%22hlk%22%2C%22lumMod%22%3A80%7D%7D%7D%2C%22placeholder%22%3A%7B%22color%22%3A%7B%22id%22%3A%22GXzKN4x8xg%22%2C%22type%22%3A%22SolidColor%22%2C%22content%22%3A%7B%22value%22%3A%22lt1%22%2C%22lumMod%22%3A50%7D%7D%7D%7D%5D%2C%22horizontalAlign%22%3A%22center%22%7D%5D%2C%22placeholder%22%3A%7B%22text%22%3A%22%E5%8F%8C%E5%87%BB%E8%BE%93%E5%85%A5%E5%86%85%E5%AE%B9%22%7D%2C%22style%22%3A%7B%22padding%22%3A%5B2%2C4%5D%2C%22verticalAlign%22%3A%22center%22%7D%7D%2C%22%24schema%22%3A%221%22%7D%2C%22extras%22%3A%7B%7D%2C%22adjustValues%22%3A%5B0.05%5D%2C%22sticky%22%3A0%2C%22role%22%3Anull%2C%22placeholderId%22%3Anull%2C%22ability%22%3Anull%2C%22hidden%22%3Afalse%2C%22geom%22%3A%22roundRect%22%7D%5D%2C%22extra%22%3A%7B%22source%22%3A%22vBPlN8L4wjPPqdG8%22%7D%7D&quot; type=&quot;application/x-alidocs-draw-shape&quot;&gt;*&lt;/div&gt;&lt;/article&gt;&#xa;&#xa;" style="shape=internalStorage;whiteSpace=wrap;html=1;backgroundOutline=1;fillColor=#dae8fc;strokeColor=#6c8ebf;dx=60;dy=20;" vertex="1" parent="1">
          <mxGeometry x="40" y="260" width="710" height="190" as="geometry" />
        </mxCell>
        <mxCell id="qHw1RcTZy6Dsvkf9iHYT-3" value="" style="shape=internalStorage;whiteSpace=wrap;html=1;backgroundOutline=1;fillColor=#d5e8d4;strokeColor=#82b366;dx=60;dy=20;" vertex="1" parent="1">
          <mxGeometry x="40" y="460" width="710" height="190" as="geometry" />
        </mxCell>
        <mxCell id="qHw1RcTZy6Dsvkf9iHYT-4" value="" style="shape=internalStorage;whiteSpace=wrap;html=1;backgroundOutline=1;fillColor=#ffe6cc;strokeColor=#d79b00;dx=60;dy=20;" vertex="1" parent="1">
          <mxGeometry x="40" y="660" width="710" height="190" as="geometry" />
        </mxCell>
        <mxCell id="qHw1RcTZy6Dsvkf9iHYT-5" value="" style="shape=internalStorage;whiteSpace=wrap;html=1;backgroundOutline=1;fillColor=#f8cecc;strokeColor=#b85450;dx=60;dy=20;" vertex="1" parent="1">
          <mxGeometry x="40" y="870" width="720" height="190" as="geometry" />
        </mxCell>
        <mxCell id="qHw1RcTZy6Dsvkf9iHYT-6" value="接入层" style="text;html=1;align=center;verticalAlign=middle;whiteSpace=wrap;rounded=0;" vertex="1" parent="1">
          <mxGeometry x="40" y="140" width="60" height="30" as="geometry" />
        </mxCell>
        <mxCell id="qHw1RcTZy6Dsvkf9iHYT-7" value="应用层" style="text;html=1;align=center;verticalAlign=middle;whiteSpace=wrap;rounded=0;" vertex="1" parent="1">
          <mxGeometry x="40" y="340" width="60" height="30" as="geometry" />
        </mxCell>
        <mxCell id="qHw1RcTZy6Dsvkf9iHYT-8" value="服务层" style="text;html=1;align=center;verticalAlign=middle;whiteSpace=wrap;rounded=0;" vertex="1" parent="1">
          <mxGeometry x="40" y="555" width="60" height="30" as="geometry" />
        </mxCell>
        <mxCell id="qHw1RcTZy6Dsvkf9iHYT-9" value="能力层" style="text;html=1;align=center;verticalAlign=middle;whiteSpace=wrap;rounded=0;" vertex="1" parent="1">
          <mxGeometry x="40" y="750" width="60" height="30" as="geometry" />
        </mxCell>
        <mxCell id="qHw1RcTZy6Dsvkf9iHYT-10" value="数据层" style="text;html=1;align=center;verticalAlign=middle;whiteSpace=wrap;rounded=0;" vertex="1" parent="1">
          <mxGeometry x="40" y="950" width="60" height="30" as="geometry" />
        </mxCell>
        <mxCell id="qHw1RcTZy6Dsvkf9iHYT-12" value="" style="edgeStyle=orthogonalEdgeStyle;rounded=0;orthogonalLoop=1;jettySize=auto;html=1;entryX=0.5;entryY=0;entryDx=0;entryDy=0;" edge="1" parent="1" source="qHw1RcTZy6Dsvkf9iHYT-11" target="qHw1RcTZy6Dsvkf9iHYT-15">
          <mxGeometry relative="1" as="geometry">
            <Array as="points" />
          </mxGeometry>
        </mxCell>
        <mxCell id="qHw1RcTZy6Dsvkf9iHYT-13" value="用户操作APP提交情报信息" style="edgeLabel;html=1;align=center;verticalAlign=middle;resizable=0;points=[];" vertex="1" connectable="0" parent="qHw1RcTZy6Dsvkf9iHYT-12">
          <mxGeometry x="-0.035" y="-3" relative="1" as="geometry">
            <mxPoint as="offset" />
          </mxGeometry>
        </mxCell>
        <mxCell id="qHw1RcTZy6Dsvkf9iHYT-11" value="&lt;div&gt;&lt;br&gt;&lt;/div&gt;&lt;div&gt;&lt;br&gt;&lt;/div&gt;&lt;div&gt;市场人员&lt;/div&gt;" style="shape=actor;whiteSpace=wrap;html=1;" vertex="1" parent="1">
          <mxGeometry x="280" y="-80" width="40" height="60" as="geometry" />
        </mxCell>
        <mxCell id="qHw1RcTZy6Dsvkf9iHYT-14" value="情报采集场景" style="whiteSpace=wrap;html=1;shape=mxgraph.basic.cloud_callout" vertex="1" parent="1">
          <mxGeometry x="340" y="-70" width="90" height="60" as="geometry" />
        </mxCell>
        <mxCell id="qHw1RcTZy6Dsvkf9iHYT-20" value="" style="edgeStyle=orthogonalEdgeStyle;rounded=0;orthogonalLoop=1;jettySize=auto;html=1;entryX=0.5;entryY=0;entryDx=0;entryDy=0;" edge="1" parent="1">
          <mxGeometry relative="1" as="geometry">
            <mxPoint x="299" y="160" as="sourcePoint" />
            <mxPoint x="299" y="300" as="targetPoint" />
            <Array as="points" />
          </mxGeometry>
        </mxCell>
        <mxCell id="qHw1RcTZy6Dsvkf9iHYT-26" value="发送情报信息" style="edgeLabel;html=1;align=center;verticalAlign=middle;resizable=0;points=[];" vertex="1" connectable="0" parent="qHw1RcTZy6Dsvkf9iHYT-20">
          <mxGeometry x="-0.0143" relative="1" as="geometry">
            <mxPoint as="offset" />
          </mxGeometry>
        </mxCell>
        <mxCell id="qHw1RcTZy6Dsvkf9iHYT-15" value="&lt;span style=&quot;white-space: pre;&quot; data-slate-fragment=&quot;JTVCJTdCJTIydHlwZSUyMiUzQSUyMnJpY2gtdGV4dCUyMiUyQyUyMmNoaWxkcmVuJTIyJTNBJTVCJTdCJTIydHlwZSUyMiUzQSUyMnBhcmFncmFwaCUyMiUyQyUyMmNoaWxkcmVuJTIyJTNBJTVCJTdCJTIydGV4dCUyMiUzQSUyMiVFNyVCRCU5MSVFNSU4NSVCMyVFNiU4RSVBNSVFNiU5NCVCNiVFOCVBRiVCNyVFNiVCMSU4MiVFRiVCQyU4QyVFNSVBRSU4QyVFNiU4OCU5MCVFOSU4OSVCNCVFNiU5RCU4MyVFNSVCOSVCNiVFOCVCRCVBQyVFNSU4RiU5MSUyMiUyQyUyMmZvbnRTaXplJTIyJTNBMTQlMkMlMjJjb2xvciUyMiUzQSU3QiUyMmlkJTIyJTNBJTIyU3lYdU5aaFlPdiUyMiUyQyUyMnR5cGUlMjIlM0ElMjJTb2xpZENvbG9yJTIyJTJDJTIyY29udGVudCUyMiUzQSU3QiUyMnZhbHVlJTIyJTNBJTIydHgxJTIyJTJDJTIybHVtTW9kJTIyJTNBODAlN0QlN0QlMkMlMjJsaW5rJTIyJTNBJTdCJTIyY29sb3IlMjIlM0ElN0IlMjJpZCUyMiUzQSUyMmFoOE9fSTRET0wlMjIlMkMlMjJ0eXBlJTIyJTNBJTIyU29saWRDb2xvciUyMiUyQyUyMmNvbnRlbnQlMjIlM0ElN0IlMjJ2YWx1ZSUyMiUzQSUyMmhsayUyMiUyQyUyMmx1bU1vZCUyMiUzQTgwJTdEJTdEJTdEJTJDJTIycGxhY2Vob2xkZXIlMjIlM0ElN0IlMjJjb2xvciUyMiUzQSU3QiUyMmlkJTIyJTNBJTIyR1h6S040eDh4ZyUyMiUyQyUyMnR5cGUlMjIlM0ElMjJTb2xpZENvbG9yJTIyJTJDJTIyY29udGVudCUyMiUzQSU3QiUyMnZhbHVlJTIyJTNBJTIybHQxJTIyJTJDJTIybHVtTW9kJTIyJTNBNTAlN0QlN0QlN0QlN0QlNUQlMkMlMjJob3Jpem9udGFsQWxpZ24lMjIlM0ElMjJjZW50ZXIlMjIlN0QlNUQlMkMlMjJwbGFjZWhvbGRlciUyMiUzQSU3QiUyMnRleHQlMjIlM0ElMjIlRTUlOEYlOEMlRTUlODclQkIlRTglQkUlOTMlRTUlODUlQTUlRTUlODYlODUlRTUlQUUlQjklMjIlN0QlMkMlMjJzdHlsZSUyMiUzQSU3QiUyMnBhZGRpbmclMjIlM0ElNUIyJTJDNCU1RCUyQyUyMnZlcnRpY2FsQWxpZ24lMjIlM0ElMjJjZW50ZXIlMjIlN0QlN0QlNUQ=&quot;&gt;网关接收请求，完成鉴权并转发&lt;/span&gt;" style="rounded=1;whiteSpace=wrap;html=1;" vertex="1" parent="1">
          <mxGeometry x="195" y="100" width="210" height="60" as="geometry" />
        </mxCell>
        <mxCell id="qHw1RcTZy6Dsvkf9iHYT-22" value="" style="edgeStyle=orthogonalEdgeStyle;rounded=0;orthogonalLoop=1;jettySize=auto;html=1;entryX=0.53;entryY=0.037;entryDx=0;entryDy=0;entryPerimeter=0;" edge="1" parent="1">
          <mxGeometry relative="1" as="geometry">
            <mxPoint x="288" y="360" as="sourcePoint" />
            <mxPoint x="289.9000000000001" y="512.2199999999998" as="targetPoint" />
            <Array as="points">
              <mxPoint x="288" y="361" />
              <mxPoint x="290" y="361" />
            </Array>
          </mxGeometry>
        </mxCell>
        <mxCell id="qHw1RcTZy6Dsvkf9iHYT-27" value="发起HTTP请求" style="edgeLabel;html=1;align=center;verticalAlign=middle;resizable=0;points=[];" vertex="1" connectable="0" parent="qHw1RcTZy6Dsvkf9iHYT-22">
          <mxGeometry x="0.0239" y="-2" relative="1" as="geometry">
            <mxPoint as="offset" />
          </mxGeometry>
        </mxCell>
        <mxCell id="qHw1RcTZy6Dsvkf9iHYT-16" value="&lt;span style=&quot;white-space: pre;&quot; data-slate-fragment=&quot;JTVCJTdCJTIydHlwZSUyMiUzQSUyMnJpY2gtdGV4dCUyMiUyQyUyMmNoaWxkcmVuJTIyJTNBJTVCJTdCJTIydHlwZSUyMiUzQSUyMnBhcmFncmFwaCUyMiUyQyUyMmNoaWxkcmVuJTIyJTNBJTVCJTdCJTIydGV4dCUyMiUzQSUyMiUyMCU1QyUyMiVFNiU4MyU4NSVFNiU4QSVBNSVFNyVBRSVBMSVFNyU5MCU4NiU1QyUyMiVFNiVBOCVBMSVFNSU5RCU5NyVFNiVBMCVBMSVFOSVBQSU4QyVFNiU5NSVCMCVFNiU4RCVBRSVFNiVBMCVCQyVFNSVCQyU4RiVFRiVCQyU4QyVFNSVCMCU4MSVFOCVBMyU4NSVFOCVBRiVCNyVFNiVCMSU4MiVFNCVCRCU5MyUyMiUyQyUyMmZvbnRTaXplJTIyJTNBMTQlMkMlMjJjb2xvciUyMiUzQSU3QiUyMmlkJTIyJTNBJTIyU3lYdU5aaFlPdiUyMiUyQyUyMnR5cGUlMjIlM0ElMjJTb2xpZENvbG9yJTIyJTJDJTIyY29udGVudCUyMiUzQSU3QiUyMnZhbHVlJTIyJTNBJTIydHgxJTIyJTJDJTIybHVtTW9kJTIyJTNBODAlN0QlN0QlMkMlMjJsaW5rJTIyJTNBJTdCJTIyY29sb3IlMjIlM0ElN0IlMjJpZCUyMiUzQSUyMmFoOE9fSTRET0wlMjIlMkMlMjJ0eXBlJTIyJTNBJTIyU29saWRDb2xvciUyMiUyQyUyMmNvbnRlbnQlMjIlM0ElN0IlMjJ2YWx1ZSUyMiUzQSUyMmhsayUyMiUyQyUyMmx1bU1vZCUyMiUzQTgwJTdEJTdEJTdEJTJDJTIycGxhY2Vob2xkZXIlMjIlM0ElN0IlMjJjb2xvciUyMiUzQSU3QiUyMmlkJTIyJTNBJTIyR1h6S040eDh4ZyUyMiUyQyUyMnR5cGUlMjIlM0ElMjJTb2xpZENvbG9yJTIyJTJDJTIyY29udGVudCUyMiUzQSU3QiUyMnZhbHVlJTIyJTNBJTIybHQxJTIyJTJDJTIybHVtTW9kJTIyJTNBNTAlN0QlN0QlN0QlN0QlNUQlMkMlMjJob3Jpem9udGFsQWxpZ24lMjIlM0ElMjJjZW50ZXIlMjIlN0QlNUQlMkMlMjJwbGFjZWhvbGRlciUyMiUzQSU3QiUyMnRleHQlMjIlM0ElMjIlRTUlOEYlOEMlRTUlODclQkIlRTglQkUlOTMlRTUlODUlQTUlRTUlODYlODUlRTUlQUUlQjklMjIlN0QlMkMlMjJzdHlsZSUyMiUzQSU3QiUyMnBhZGRpbmclMjIlM0ElNUIyJTJDNCU1RCUyQyUyMnZlcnRpY2FsQWxpZ24lMjIlM0ElMjJjZW50ZXIlMjIlN0QlN0QlNUQ=&quot;&gt; &quot;情报管理&quot;模块校验数据格式，封装请求体&lt;/span&gt;" style="rounded=1;whiteSpace=wrap;html=1;" vertex="1" parent="1">
          <mxGeometry x="180" y="300" width="240" height="60" as="geometry" />
        </mxCell>
        <mxCell id="qHw1RcTZy6Dsvkf9iHYT-24" value="" style="edgeStyle=orthogonalEdgeStyle;rounded=0;orthogonalLoop=1;jettySize=auto;html=1;" edge="1" parent="1" source="qHw1RcTZy6Dsvkf9iHYT-17" target="qHw1RcTZy6Dsvkf9iHYT-18">
          <mxGeometry relative="1" as="geometry" />
        </mxCell>
        <mxCell id="qHw1RcTZy6Dsvkf9iHYT-28" value="API接口调用" style="edgeLabel;html=1;align=center;verticalAlign=middle;resizable=0;points=[];" vertex="1" connectable="0" parent="qHw1RcTZy6Dsvkf9iHYT-24">
          <mxGeometry x="-0.0343" y="1" relative="1" as="geometry">
            <mxPoint as="offset" />
          </mxGeometry>
        </mxCell>
        <mxCell id="qHw1RcTZy6Dsvkf9iHYT-17" value="&lt;span style=&quot;white-space: pre;&quot; data-slate-fragment=&quot;JTVCJTdCJTIydHlwZSUyMiUzQSUyMnJpY2gtdGV4dCUyMiUyQyUyMmNoaWxkcmVuJTIyJTNBJTVCJTdCJTIydHlwZSUyMiUzQSUyMnBhcmFncmFwaCUyMiUyQyUyMmNoaWxkcmVuJTIyJTNBJTVCJTdCJTIydGV4dCUyMiUzQSUyMiVFOCVCMCU4MyVFNyU5NCVBOCU1QyUyMiVFNiU4MyU4NSVFNiU4QSVBNSVFOSU4NyU4NyVFOSU5QiU4NiVFNiU5QyU4RCVFNSU4QSVBMSU1QyUyMiVFRiVCQyU4QyVFNyU5NCU5RiVFNiU4OCU5MCVFNiU4MyU4NSVFNiU4QSVBNSVFOCVBRSVCMCVFNSVCRCU5NSUyMiUyQyUyMmZvbnRTaXplJTIyJTNBMTQlMkMlMjJjb2xvciUyMiUzQSU3QiUyMmlkJTIyJTNBJTIyU3lYdU5aaFlPdiUyMiUyQyUyMnR5cGUlMjIlM0ElMjJTb2xpZENvbG9yJTIyJTJDJTIyY29udGVudCUyMiUzQSU3QiUyMnZhbHVlJTIyJTNBJTIydHgxJTIyJTJDJTIybHVtTW9kJTIyJTNBODAlN0QlN0QlMkMlMjJsaW5rJTIyJTNBJTdCJTIyY29sb3IlMjIlM0ElN0IlMjJpZCUyMiUzQSUyMmFoOE9fSTRET0wlMjIlMkMlMjJ0eXBlJTIyJTNBJTIyU29saWRDb2xvciUyMiUyQyUyMmNvbnRlbnQlMjIlM0ElN0IlMjJ2YWx1ZSUyMiUzQSUyMmhsayUyMiUyQyUyMmx1bU1vZCUyMiUzQTgwJTdEJTdEJTdEJTJDJTIycGxhY2Vob2xkZXIlMjIlM0ElN0IlMjJjb2xvciUyMiUzQSU3QiUyMmlkJTIyJTNBJTIyR1h6S040eDh4ZyUyMiUyQyUyMnR5cGUlMjIlM0ElMjJTb2xpZENvbG9yJTIyJTJDJTIyY29udGVudCUyMiUzQSU3QiUyMnZhbHVlJTIyJTNBJTIybHQxJTIyJTJDJTIybHVtTW9kJTIyJTNBNTAlN0QlN0QlN0QlN0QlNUQlMkMlMjJob3Jpem9udGFsQWxpZ24lMjIlM0ElMjJjZW50ZXIlMjIlN0QlNUQlMkMlMjJwbGFjZWhvbGRlciUyMiUzQSU3QiUyMnRleHQlMjIlM0ElMjIlRTUlOEYlOEMlRTUlODclQkIlRTglQkUlOTMlRTUlODUlQTUlRTUlODYlODUlRTUlQUUlQjklMjIlN0QlMkMlMjJzdHlsZSUyMiUzQSU3QiUyMnBhZGRpbmclMjIlM0ElNUIyJTJDNCU1RCUyQyUyMnZlcnRpY2FsQWxpZ24lMjIlM0ElMjJjZW50ZXIlMjIlN0QlN0QlNUQ=&quot;&gt;调用&quot;情报采集服务&quot;，生成情报记录&lt;/span&gt;" style="rounded=1;whiteSpace=wrap;html=1;" vertex="1" parent="1">
          <mxGeometry x="180" y="510" width="230" height="60" as="geometry" />
        </mxCell>
        <mxCell id="qHw1RcTZy6Dsvkf9iHYT-25" style="edgeStyle=orthogonalEdgeStyle;rounded=0;orthogonalLoop=1;jettySize=auto;html=1;entryX=1;entryY=0.75;entryDx=0;entryDy=0;" edge="1" parent="1">
          <mxGeometry relative="1" as="geometry">
            <mxPoint x="580" y="560" as="sourcePoint" />
            <mxPoint x="390" y="985" as="targetPoint" />
            <Array as="points">
              <mxPoint x="580" y="985" />
            </Array>
          </mxGeometry>
        </mxCell>
        <mxCell id="qHw1RcTZy6Dsvkf9iHYT-29" value="调用数据DAO的API" style="edgeLabel;html=1;align=center;verticalAlign=middle;resizable=0;points=[];" vertex="1" connectable="0" parent="qHw1RcTZy6Dsvkf9iHYT-25">
          <mxGeometry x="-0.1967" y="3" relative="1" as="geometry">
            <mxPoint as="offset" />
          </mxGeometry>
        </mxCell>
        <mxCell id="qHw1RcTZy6Dsvkf9iHYT-117" style="edgeStyle=orthogonalEdgeStyle;rounded=0;orthogonalLoop=1;jettySize=auto;html=1;exitX=0.75;exitY=0;exitDx=0;exitDy=0;entryX=1;entryY=0.5;entryDx=0;entryDy=0;strokeColor=#660000;strokeWidth=2;" edge="1" parent="1" source="qHw1RcTZy6Dsvkf9iHYT-18" target="qHw1RcTZy6Dsvkf9iHYT-16">
          <mxGeometry relative="1" as="geometry" />
        </mxCell>
        <mxCell id="qHw1RcTZy6Dsvkf9iHYT-118" value="Http Response" style="edgeLabel;html=1;align=center;verticalAlign=middle;resizable=0;points=[];" vertex="1" connectable="0" parent="qHw1RcTZy6Dsvkf9iHYT-117">
          <mxGeometry x="-0.5937" y="-1" relative="1" as="geometry">
            <mxPoint as="offset" />
          </mxGeometry>
        </mxCell>
        <mxCell id="qHw1RcTZy6Dsvkf9iHYT-18" value="&lt;span style=&quot;white-space: pre;&quot; data-slate-fragment=&quot;JTVCJTdCJTIydHlwZSUyMiUzQSUyMnJpY2gtdGV4dCUyMiUyQyUyMmNoaWxkcmVuJTIyJTNBJTVCJTdCJTIydHlwZSUyMiUzQSUyMnBhcmFncmFwaCUyMiUyQyUyMmNoaWxkcmVuJTIyJTNBJTVCJTdCJTIydGV4dCUyMiUzQSUyMiVFOCVCMCU4MyVFNyU5NCVBOCVFMiU4MCU5QyVFNiU5NSVCMCVFNiU4RCVBRSVFNSVBRCU5OCVFNSU4MiVBOCVFNiU5QyU4RCVFNSU4QSVBMSVFMiU4MCU5RCVFOCVCRiU5QiVFOCVBMSU4QyVFNiU5NSVCMCVFNiU4RCVBRSVFNSVBRCU5OCVFNSU4MiVBOCUyMiUyQyUyMmZvbnRTaXplJTIyJTNBMTQlMkMlMjJjb2xvciUyMiUzQSU3QiUyMmlkJTIyJTNBJTIyU3lYdU5aaFlPdiUyMiUyQyUyMnR5cGUlMjIlM0ElMjJTb2xpZENvbG9yJTIyJTJDJTIyY29udGVudCUyMiUzQSU3QiUyMnZhbHVlJTIyJTNBJTIydHgxJTIyJTJDJTIybHVtTW9kJTIyJTNBODAlN0QlN0QlMkMlMjJsaW5rJTIyJTNBJTdCJTIyY29sb3IlMjIlM0ElN0IlMjJpZCUyMiUzQSUyMmFoOE9fSTRET0wlMjIlMkMlMjJ0eXBlJTIyJTNBJTIyU29saWRDb2xvciUyMiUyQyUyMmNvbnRlbnQlMjIlM0ElN0IlMjJ2YWx1ZSUyMiUzQSUyMmhsayUyMiUyQyUyMmx1bU1vZCUyMiUzQTgwJTdEJTdEJTdEJTJDJTIycGxhY2Vob2xkZXIlMjIlM0ElN0IlMjJjb2xvciUyMiUzQSU3QiUyMmlkJTIyJTNBJTIyR1h6S040eDh4ZyUyMiUyQyUyMnR5cGUlMjIlM0ElMjJTb2xpZENvbG9yJTIyJTJDJTIyY29udGVudCUyMiUzQSU3QiUyMnZhbHVlJTIyJTNBJTIybHQxJTIyJTJDJTIybHVtTW9kJTIyJTNBNTAlN0QlN0QlN0QlN0QlNUQlMkMlMjJob3Jpem9udGFsQWxpZ24lMjIlM0ElMjJjZW50ZXIlMjIlN0QlNUQlMkMlMjJwbGFjZWhvbGRlciUyMiUzQSU3QiUyMnRleHQlMjIlM0ElMjIlRTUlOEYlOEMlRTUlODclQkIlRTglQkUlOTMlRTUlODUlQTUlRTUlODYlODUlRTUlQUUlQjklMjIlN0QlMkMlMjJzdHlsZSUyMiUzQSU3QiUyMnBhZGRpbmclMjIlM0ElNUIyJTJDNCU1RCUyQyUyMnZlcnRpY2FsQWxpZ24lMjIlM0ElMjJjZW50ZXIlMjIlN0QlN0QlNUQ=&quot;&gt;调用“数据存储服务”进行数据存储&lt;/span&gt;" style="rounded=1;whiteSpace=wrap;html=1;" vertex="1" parent="1">
          <mxGeometry x="480" y="510" width="230" height="60" as="geometry" />
        </mxCell>
        <mxCell id="qHw1RcTZy6Dsvkf9iHYT-111" value="" style="edgeStyle=orthogonalEdgeStyle;rounded=0;orthogonalLoop=1;jettySize=auto;html=1;" edge="1" parent="1" source="qHw1RcTZy6Dsvkf9iHYT-19" target="qHw1RcTZy6Dsvkf9iHYT-110">
          <mxGeometry relative="1" as="geometry" />
        </mxCell>
        <mxCell id="qHw1RcTZy6Dsvkf9iHYT-19" value="&lt;span style=&quot;white-space: pre;&quot; data-slate-fragment=&quot;JTVCJTdCJTIydHlwZSUyMiUzQSUyMnJpY2gtdGV4dCUyMiUyQyUyMmNoaWxkcmVuJTIyJTNBJTVCJTdCJTIydHlwZSUyMiUzQSUyMnBhcmFncmFwaCUyMiUyQyUyMmNoaWxkcmVuJTIyJTNBJTVCJTdCJTIydGV4dCUyMiUzQSUyMiVFNSU4RSU5RiVFNSVBNyU4QiVFNiU4MyU4NSVFNiU4QSVBNSVFNiU5NSVCMCVFNiU4RCVBRSVFNSVBRCU5OCVFNSU4MiVBOCVFNSU4NSVBNSVFNSVCQSU5MyUyMiUyQyUyMmZvbnRTaXplJTIyJTNBMTQlMkMlMjJjb2xvciUyMiUzQSU3QiUyMmlkJTIyJTNBJTIyU3lYdU5aaFlPdiUyMiUyQyUyMnR5cGUlMjIlM0ElMjJTb2xpZENvbG9yJTIyJTJDJTIyY29udGVudCUyMiUzQSU3QiUyMnZhbHVlJTIyJTNBJTIydHgxJTIyJTJDJTIybHVtTW9kJTIyJTNBODAlN0QlN0QlMkMlMjJsaW5rJTIyJTNBJTdCJTIyY29sb3IlMjIlM0ElN0IlMjJpZCUyMiUzQSUyMmFoOE9fSTRET0wlMjIlMkMlMjJ0eXBlJTIyJTNBJTIyU29saWRDb2xvciUyMiUyQyUyMmNvbnRlbnQlMjIlM0ElN0IlMjJ2YWx1ZSUyMiUzQSUyMmhsayUyMiUyQyUyMmx1bU1vZCUyMiUzQTgwJTdEJTdEJTdEJTJDJTIycGxhY2Vob2xkZXIlMjIlM0ElN0IlMjJjb2xvciUyMiUzQSU3QiUyMmlkJTIyJTNBJTIyR1h6S040eDh4ZyUyMiUyQyUyMnR5cGUlMjIlM0ElMjJTb2xpZENvbG9yJTIyJTJDJTIyY29udGVudCUyMiUzQSU3QiUyMnZhbHVlJTIyJTNBJTIybHQxJTIyJTJDJTIybHVtTW9kJTIyJTNBNTAlN0QlN0QlN0QlN0QlNUQlMkMlMjJob3Jpem9udGFsQWxpZ24lMjIlM0ElMjJjZW50ZXIlMjIlN0QlNUQlMkMlMjJwbGFjZWhvbGRlciUyMiUzQSU3QiUyMnRleHQlMjIlM0ElMjIlRTUlOEYlOEMlRTUlODclQkIlRTglQkUlOTMlRTUlODUlQTUlRTUlODYlODUlRTUlQUUlQjklMjIlN0QlMkMlMjJzdHlsZSUyMiUzQSU3QiUyMnBhZGRpbmclMjIlM0ElNUIyJTJDNCU1RCUyQyUyMnZlcnRpY2FsQWxpZ24lMjIlM0ElMjJjZW50ZXIlMjIlN0QlN0QlNUQ=&quot;&gt;原始情报数据存储入库&lt;/span&gt;" style="rounded=1;whiteSpace=wrap;html=1;" vertex="1" parent="1">
          <mxGeometry x="200" y="950" width="190" height="60" as="geometry" />
        </mxCell>
        <mxCell id="qHw1RcTZy6Dsvkf9iHYT-31" value="" style="shape=internalStorage;whiteSpace=wrap;html=1;backgroundOutline=1;fillColor=#f5f5f5;strokeColor=#666666;dx=60;dy=20;fontColor=#333333;" vertex="1" parent="1">
          <mxGeometry x="800" y="61" width="1080" height="190" as="geometry" />
        </mxCell>
        <mxCell id="qHw1RcTZy6Dsvkf9iHYT-32" value="&#xa;&lt;article&gt;&lt;div content=&quot;%7B%22shapes%22%3A%5B%7B%22type%22%3A%22DMLPreset%22%2C%22x%22%3A1275.2438311468427%2C%22y%22%3A-436.65992343674486%2C%22width%22%3A414.88235045565216%2C%22height%22%3A103.91976142427097%2C%22angle%22%3A0%2C%22id%22%3A%22vPAeE_-KT%22%2C%22fill%22%3A%7B%22id%22%3A%22uPSDF_m4-f%22%2C%22type%22%3A%22SolidColor%22%2C%22content%22%3A%7B%22value%22%3A%22fl1%22%2C%22lumMod%22%3A20%2C%22lumOff%22%3A80%7D%7D%2C%22fillRule%22%3A%22nonzero%22%2C%22stroke%22%3A%7B%22id%22%3A%224fyxNNyTlK%22%2C%22type%22%3A%22SolidColor%22%2C%22content%22%3A%7B%22value%22%3A%22sk1%22%2C%22lumMod%22%3A80%2C%22lumOff%22%3A20%7D%7D%2C%22strokeWidth%22%3A1%2C%22strokeDash%22%3A%5B%5D%2C%22strokeLinecap%22%3A%22round%22%2C%22strokeLinejoin%22%3A%22round%22%2C%22opacity%22%3A1%2C%22filter%22%3A%22%22%2C%22text%22%3A%7B%22default%22%3A%7B%22type%22%3A%22rich-text%22%2C%22children%22%3A%5B%7B%22type%22%3A%22paragraph%22%2C%22children%22%3A%5B%7B%22text%22%3A%22%20%5C%22%E6%83%85%E6%8A%A5%E7%AE%A1%E7%90%86%5C%22%E6%A8%A1%E5%9D%97%E6%A0%A1%E9%AA%8C%E6%95%B0%E6%8D%AE%E6%A0%BC%E5%BC%8F%EF%BC%8C%E5%B0%81%E8%A3%85%E8%AF%B7%E6%B1%82%E4%BD%93%22%2C%22fontSize%22%3A14%2C%22color%22%3A%7B%22id%22%3A%22SyXuNZhYOv%22%2C%22type%22%3A%22SolidColor%22%2C%22content%22%3A%7B%22value%22%3A%22tx1%22%2C%22lumMod%22%3A80%7D%7D%2C%22link%22%3A%7B%22color%22%3A%7B%22id%22%3A%22ah8O_I4DOL%22%2C%22type%22%3A%22SolidColor%22%2C%22content%22%3A%7B%22value%22%3A%22hlk%22%2C%22lumMod%22%3A80%7D%7D%7D%2C%22placeholder%22%3A%7B%22color%22%3A%7B%22id%22%3A%22GXzKN4x8xg%22%2C%22type%22%3A%22SolidColor%22%2C%22content%22%3A%7B%22value%22%3A%22lt1%22%2C%22lumMod%22%3A50%7D%7D%7D%7D%5D%2C%22horizontalAlign%22%3A%22center%22%7D%5D%2C%22placeholder%22%3A%7B%22text%22%3A%22%E5%8F%8C%E5%87%BB%E8%BE%93%E5%85%A5%E5%86%85%E5%AE%B9%22%7D%2C%22style%22%3A%7B%22padding%22%3A%5B2%2C4%5D%2C%22verticalAlign%22%3A%22center%22%7D%7D%2C%22%24schema%22%3A%221%22%7D%2C%22extras%22%3A%7B%7D%2C%22adjustValues%22%3A%5B0.05%5D%2C%22sticky%22%3A0%2C%22role%22%3Anull%2C%22placeholderId%22%3Anull%2C%22ability%22%3Anull%2C%22hidden%22%3Afalse%2C%22geom%22%3A%22roundRect%22%7D%5D%2C%22extra%22%3A%7B%22source%22%3A%22vBPlN8L4wjPPqdG8%22%7D%7D&quot; type=&quot;application/x-alidocs-draw-shape&quot;&gt;*&lt;/div&gt;&lt;/article&gt;&#xa;&#xa;" style="shape=internalStorage;whiteSpace=wrap;html=1;backgroundOutline=1;fillColor=#dae8fc;strokeColor=#6c8ebf;dx=60;dy=20;" vertex="1" parent="1">
          <mxGeometry x="800" y="261" width="1080" height="190" as="geometry" />
        </mxCell>
        <mxCell id="qHw1RcTZy6Dsvkf9iHYT-33" value="" style="shape=internalStorage;whiteSpace=wrap;html=1;backgroundOutline=1;fillColor=#d5e8d4;strokeColor=#82b366;dx=60;dy=20;" vertex="1" parent="1">
          <mxGeometry x="800" y="461" width="1080" height="190" as="geometry" />
        </mxCell>
        <mxCell id="qHw1RcTZy6Dsvkf9iHYT-34" value="" style="shape=internalStorage;whiteSpace=wrap;html=1;backgroundOutline=1;fillColor=#ffe6cc;strokeColor=#d79b00;dx=60;dy=20;" vertex="1" parent="1">
          <mxGeometry x="800" y="661" width="1080" height="190" as="geometry" />
        </mxCell>
        <mxCell id="qHw1RcTZy6Dsvkf9iHYT-35" value="" style="shape=internalStorage;whiteSpace=wrap;html=1;backgroundOutline=1;fillColor=#f8cecc;strokeColor=#b85450;dx=60;dy=20;" vertex="1" parent="1">
          <mxGeometry x="800" y="871" width="1080" height="190" as="geometry" />
        </mxCell>
        <mxCell id="qHw1RcTZy6Dsvkf9iHYT-36" value="接入层" style="text;html=1;align=center;verticalAlign=middle;whiteSpace=wrap;rounded=0;" vertex="1" parent="1">
          <mxGeometry x="800" y="141" width="60" height="30" as="geometry" />
        </mxCell>
        <mxCell id="qHw1RcTZy6Dsvkf9iHYT-37" value="应用层" style="text;html=1;align=center;verticalAlign=middle;whiteSpace=wrap;rounded=0;" vertex="1" parent="1">
          <mxGeometry x="800" y="341" width="60" height="30" as="geometry" />
        </mxCell>
        <mxCell id="qHw1RcTZy6Dsvkf9iHYT-38" value="服务层" style="text;html=1;align=center;verticalAlign=middle;whiteSpace=wrap;rounded=0;" vertex="1" parent="1">
          <mxGeometry x="800" y="556" width="60" height="30" as="geometry" />
        </mxCell>
        <mxCell id="qHw1RcTZy6Dsvkf9iHYT-39" value="能力层" style="text;html=1;align=center;verticalAlign=middle;whiteSpace=wrap;rounded=0;" vertex="1" parent="1">
          <mxGeometry x="800" y="751" width="60" height="30" as="geometry" />
        </mxCell>
        <mxCell id="qHw1RcTZy6Dsvkf9iHYT-40" value="数据层" style="text;html=1;align=center;verticalAlign=middle;whiteSpace=wrap;rounded=0;" vertex="1" parent="1">
          <mxGeometry x="800" y="951" width="60" height="30" as="geometry" />
        </mxCell>
        <mxCell id="qHw1RcTZy6Dsvkf9iHYT-41" value="" style="edgeStyle=orthogonalEdgeStyle;rounded=0;orthogonalLoop=1;jettySize=auto;html=1;entryX=0.5;entryY=0;entryDx=0;entryDy=0;" edge="1" parent="1" source="qHw1RcTZy6Dsvkf9iHYT-43" target="qHw1RcTZy6Dsvkf9iHYT-47">
          <mxGeometry relative="1" as="geometry">
            <Array as="points" />
          </mxGeometry>
        </mxCell>
        <mxCell id="qHw1RcTZy6Dsvkf9iHYT-42" value="&lt;span style=&quot;white-space-collapse: preserve;&quot; data-slate-fragment=&quot;JTVCJTdCJTIydHlwZSUyMiUzQSUyMnJpY2gtdGV4dCUyMiUyQyUyMmNoaWxkcmVuJTIyJTNBJTVCJTdCJTIydHlwZSUyMiUzQSUyMnBhcmFncmFwaCUyMiUyQyUyMmNoaWxkcmVuJTIyJTNBJTVCJTdCJTIydGV4dCUyMiUzQSUyMiVFNCVCOCVCQiVFNyVBRSVBMSVFNiU5RiVBNSVFNyU5QyU4QiVFNSVCRSU4NSVFNSVBRSVBMSVFNiVBMCVCOCVFNiU4MyU4NSVFNiU4QSVBNSVFNSU4OCU5NyVFOCVBMSVBOCUyMiUyQyUyMmZvbnRTaXplJTIyJTNBMTQlMkMlMjJjb2xvciUyMiUzQSU3QiUyMmlkJTIyJTNBJTIyU3lYdU5aaFlPdiUyMiUyQyUyMnR5cGUlMjIlM0ElMjJTb2xpZENvbG9yJTIyJTJDJTIyY29udGVudCUyMiUzQSU3QiUyMnZhbHVlJTIyJTNBJTIydHgxJTIyJTJDJTIybHVtTW9kJTIyJTNBODAlN0QlN0QlMkMlMjJsaW5rJTIyJTNBJTdCJTIyY29sb3IlMjIlM0ElN0IlMjJpZCUyMiUzQSUyMmFoOE9fSTRET0wlMjIlMkMlMjJ0eXBlJTIyJTNBJTIyU29saWRDb2xvciUyMiUyQyUyMmNvbnRlbnQlMjIlM0ElN0IlMjJ2YWx1ZSUyMiUzQSUyMmhsayUyMiUyQyUyMmx1bU1vZCUyMiUzQTgwJTdEJTdEJTdEJTJDJTIycGxhY2Vob2xkZXIlMjIlM0ElN0IlMjJjb2xvciUyMiUzQSU3QiUyMmlkJTIyJTNBJTIyR1h6S040eDh4ZyUyMiUyQyUyMnR5cGUlMjIlM0ElMjJTb2xpZENvbG9yJTIyJTJDJTIyY29udGVudCUyMiUzQSU3QiUyMnZhbHVlJTIyJTNBJTIybHQxJTIyJTJDJTIybHVtTW9kJTIyJTNBNTAlN0QlN0QlN0QlN0QlNUQlMkMlMjJob3Jpem9udGFsQWxpZ24lMjIlM0ElMjJjZW50ZXIlMjIlN0QlNUQlMkMlMjJwbGFjZWhvbGRlciUyMiUzQSU3QiUyMnRleHQlMjIlM0ElMjIlRTUlOEYlOEMlRTUlODclQkIlRTglQkUlOTMlRTUlODUlQTUlRTUlODYlODUlRTUlQUUlQjklMjIlN0QlMkMlMjJzdHlsZSUyMiUzQSU3QiUyMnBhZGRpbmclMjIlM0ElNUIyJTJDNCU1RCUyQyUyMnZlcnRpY2FsQWxpZ24lMjIlM0ElMjJjZW50ZXIlMjIlN0QlN0QlNUQ=&quot;&gt;主管查看待审核情报列表&lt;/span&gt;" style="edgeLabel;html=1;align=center;verticalAlign=middle;resizable=0;points=[];" vertex="1" connectable="0" parent="qHw1RcTZy6Dsvkf9iHYT-41">
          <mxGeometry x="-0.035" y="-3" relative="1" as="geometry">
            <mxPoint as="offset" />
          </mxGeometry>
        </mxCell>
        <mxCell id="qHw1RcTZy6Dsvkf9iHYT-65" style="edgeStyle=orthogonalEdgeStyle;rounded=0;orthogonalLoop=1;jettySize=auto;html=1;" edge="1" parent="1" source="qHw1RcTZy6Dsvkf9iHYT-43" target="qHw1RcTZy6Dsvkf9iHYT-64">
          <mxGeometry relative="1" as="geometry">
            <Array as="points">
              <mxPoint x="1060" y="10" />
              <mxPoint x="1350" y="10" />
            </Array>
          </mxGeometry>
        </mxCell>
        <mxCell id="qHw1RcTZy6Dsvkf9iHYT-66" value="&lt;span style=&quot;white-space-collapse: preserve;&quot; data-slate-fragment=&quot;JTVCJTdCJTIydHlwZSUyMiUzQSUyMnJpY2gtdGV4dCUyMiUyQyUyMmNoaWxkcmVuJTIyJTNBJTVCJTdCJTIydHlwZSUyMiUzQSUyMnBhcmFncmFwaCUyMiUyQyUyMmNoaWxkcmVuJTIyJTNBJTVCJTdCJTIydGV4dCUyMiUzQSUyMiVFNCVCOCVCQiVFNyVBRSVBMSVFNiU5MyU4RCVFNCVCRCU5QyVFRiVCQyU4OCVFOSU4MCU5QSVFOCVCRiU4NyUyRiVFNiU4QiU4NiVFNSU4OCU4NiUyRiVFNSU5MCU4OCVFNSVCOSVCNiUyRiVFOSVBOSVCMyVFNSU5QiU5RSVFRiVCQyU4OSUyMiUyQyUyMmZvbnRTaXplJTIyJTNBMTQlMkMlMjJjb2xvciUyMiUzQSU3QiUyMmlkJTIyJTNBJTIyU3lYdU5aaFlPdiUyMiUyQyUyMnR5cGUlMjIlM0ElMjJTb2xpZENvbG9yJTIyJTJDJTIyY29udGVudCUyMiUzQSU3QiUyMnZhbHVlJTIyJTNBJTIydHgxJTIyJTJDJTIybHVtTW9kJTIyJTNBODAlN0QlN0QlMkMlMjJsaW5rJTIyJTNBJTdCJTIyY29sb3IlMjIlM0ElN0IlMjJpZCUyMiUzQSUyMmFoOE9fSTRET0wlMjIlMkMlMjJ0eXBlJTIyJTNBJTIyU29saWRDb2xvciUyMiUyQyUyMmNvbnRlbnQlMjIlM0ElN0IlMjJ2YWx1ZSUyMiUzQSUyMmhsayUyMiUyQyUyMmx1bU1vZCUyMiUzQTgwJTdEJTdEJTdEJTJDJTIycGxhY2Vob2xkZXIlMjIlM0ElN0IlMjJjb2xvciUyMiUzQSU3QiUyMmlkJTIyJTNBJTIyR1h6S040eDh4ZyUyMiUyQyUyMnR5cGUlMjIlM0ElMjJTb2xpZENvbG9yJTIyJTJDJTIyY29udGVudCUyMiUzQSU3QiUyMnZhbHVlJTIyJTNBJTIybHQxJTIyJTJDJTIybHVtTW9kJTIyJTNBNTAlN0QlN0QlN0QlN0QlNUQlMkMlMjJob3Jpem9udGFsQWxpZ24lMjIlM0ElMjJjZW50ZXIlMjIlN0QlNUQlMkMlMjJwbGFjZWhvbGRlciUyMiUzQSU3QiUyMnRleHQlMjIlM0ElMjIlRTUlOEYlOEMlRTUlODclQkIlRTglQkUlOTMlRTUlODUlQTUlRTUlODYlODUlRTUlQUUlQjklMjIlN0QlMkMlMjJzdHlsZSUyMiUzQSU3QiUyMnBhZGRpbmclMjIlM0ElNUIyJTJDNCU1RCUyQyUyMnZlcnRpY2FsQWxpZ24lMjIlM0ElMjJjZW50ZXIlMjIlN0QlN0QlNUQ=&quot;&gt;主管进行情报处理操作（通过/拆分/合并/驳回）&lt;/span&gt;" style="edgeLabel;html=1;align=center;verticalAlign=middle;resizable=0;points=[];" vertex="1" connectable="0" parent="qHw1RcTZy6Dsvkf9iHYT-65">
          <mxGeometry x="0.1139" y="3" relative="1" as="geometry">
            <mxPoint as="offset" />
          </mxGeometry>
        </mxCell>
        <mxCell id="qHw1RcTZy6Dsvkf9iHYT-43" value="&lt;div&gt;&lt;br&gt;&lt;/div&gt;&lt;div&gt;&lt;br&gt;&lt;/div&gt;&lt;div&gt;市场主管&lt;/div&gt;" style="shape=actor;whiteSpace=wrap;html=1;" vertex="1" parent="1">
          <mxGeometry x="1040" y="-79" width="40" height="60" as="geometry" />
        </mxCell>
        <mxCell id="qHw1RcTZy6Dsvkf9iHYT-44" value="&lt;span style=&quot;white-space: pre;&quot; data-slate-fragment=&quot;JTVCJTdCJTIydHlwZSUyMiUzQSUyMnJpY2gtdGV4dCUyMiUyQyUyMmNoaWxkcmVuJTIyJTNBJTVCJTdCJTIydHlwZSUyMiUzQSUyMnBhcmFncmFwaCUyMiUyQyUyMmNoaWxkcmVuJTIyJTNBJTVCJTdCJTIydGV4dCUyMiUzQSUyMiVFNiU4MyU4NSVFNiU4QSVBNSVFNSVBRSVBMSVFNiU5RiVBNSVFNSU5QyVCQSVFNiU5OSVBRiVFNyU5QSU4NCVFNiU5NSVCMCVFNiU4RCVBRSVFNiVCNSU4MSVFNSU5QiVCRSUyMiUyQyUyMmZvbnRTaXplJTIyJTNBMTglMkMlMjJjb2xvciUyMiUzQSU3QiUyMmlkJTIyJTNBJTIyR1hXSTlCRnlMJTIyJTJDJTIydHlwZSUyMiUzQSUyMlNvbGlkQ29sb3IlMjIlMkMlMjJjb250ZW50JTIyJTNBJTdCJTIydmFsdWUlMjIlM0ElMjJhYzElMjIlMkMlMjJsdW1Nb2QlMjIlM0E1MCU3RCU3RCUyQyUyMmxpbmslMjIlM0ElN0IlMjJjb2xvciUyMiUzQSU3QiUyMmlkJTIyJTNBJTIyYWg4T19JNERPTCUyMiUyQyUyMnR5cGUlMjIlM0ElMjJTb2xpZENvbG9yJTIyJTJDJTIyY29udGVudCUyMiUzQSU3QiUyMnZhbHVlJTIyJTNBJTIyaGxrJTIyJTJDJTIybHVtTW9kJTIyJTNBODAlN0QlN0QlN0QlMkMlMjJwbGFjZWhvbGRlciUyMiUzQSU3QiUyMmNvbG9yJTIyJTNBJTdCJTIyaWQlMjIlM0ElMjJHWHpLTjR4OHhnJTIyJTJDJTIydHlwZSUyMiUzQSUyMlNvbGlkQ29sb3IlMjIlMkMlMjJjb250ZW50JTIyJTNBJTdCJTIydmFsdWUlMjIlM0ElMjJsdDElMjIlMkMlMjJsdW1Nb2QlMjIlM0E1MCU3RCU3RCU3RCU3RCU1RCUyQyUyMmhvcml6b250YWxBbGlnbiUyMiUzQSUyMmNlbnRlciUyMiU3RCU1RCUyQyUyMnBsYWNlaG9sZGVyJTIyJTNBJTdCJTIydGV4dCUyMiUzQSUyMiVFNSU4RiU4QyVFNSU4NyVCQiVFOCVCRSU5MyVFNSU4NSVBNSVFNSU4NiU4NSVFNSVBRSVCOSUyMiU3RCUyQyUyMnN0eWxlJTIyJTNBJTdCJTIycGFkZGluZyUyMiUzQSU1QjIlMkM0JTVEJTJDJTIydmVydGljYWxBbGlnbiUyMiUzQSUyMmNlbnRlciUyMiU3RCU3RCU1RA==&quot;&gt;情报审查场景的数据流图&lt;/span&gt;" style="whiteSpace=wrap;html=1;shape=mxgraph.basic.cloud_callout" vertex="1" parent="1">
          <mxGeometry x="1100" y="-90" width="150" height="81" as="geometry" />
        </mxCell>
        <mxCell id="qHw1RcTZy6Dsvkf9iHYT-45" value="" style="edgeStyle=orthogonalEdgeStyle;rounded=0;orthogonalLoop=1;jettySize=auto;html=1;entryX=0.5;entryY=0;entryDx=0;entryDy=0;" edge="1" parent="1">
          <mxGeometry relative="1" as="geometry">
            <mxPoint x="1059" y="161" as="sourcePoint" />
            <mxPoint x="1059" y="301" as="targetPoint" />
            <Array as="points" />
          </mxGeometry>
        </mxCell>
        <mxCell id="qHw1RcTZy6Dsvkf9iHYT-46" value="发送情报信息" style="edgeLabel;html=1;align=center;verticalAlign=middle;resizable=0;points=[];" vertex="1" connectable="0" parent="qHw1RcTZy6Dsvkf9iHYT-45">
          <mxGeometry x="-0.0143" relative="1" as="geometry">
            <mxPoint as="offset" />
          </mxGeometry>
        </mxCell>
        <mxCell id="qHw1RcTZy6Dsvkf9iHYT-47" value="&lt;span style=&quot;white-space: pre;&quot; data-slate-fragment=&quot;JTVCJTdCJTIydHlwZSUyMiUzQSUyMnJpY2gtdGV4dCUyMiUyQyUyMmNoaWxkcmVuJTIyJTNBJTVCJTdCJTIydHlwZSUyMiUzQSUyMnBhcmFncmFwaCUyMiUyQyUyMmNoaWxkcmVuJTIyJTNBJTVCJTdCJTIydGV4dCUyMiUzQSUyMkFQSSUyMEdhdGV3YXklRTglQjclQUYlRTclOTQlQjElRTYlOUYlQTUlRTglQUYlQTIlRTglQUYlQjclRTYlQjElODIlMjIlMkMlMjJmb250U2l6ZSUyMiUzQTE0JTJDJTIyY29sb3IlMjIlM0ElN0IlMjJpZCUyMiUzQSUyMlN5WHVOWmhZT3YlMjIlMkMlMjJ0eXBlJTIyJTNBJTIyU29saWRDb2xvciUyMiUyQyUyMmNvbnRlbnQlMjIlM0ElN0IlMjJ2YWx1ZSUyMiUzQSUyMnR4MSUyMiUyQyUyMmx1bU1vZCUyMiUzQTgwJTdEJTdEJTJDJTIybGluayUyMiUzQSU3QiUyMmNvbG9yJTIyJTNBJTdCJTIyaWQlMjIlM0ElMjJhaDhPX0k0RE9MJTIyJTJDJTIydHlwZSUyMiUzQSUyMlNvbGlkQ29sb3IlMjIlMkMlMjJjb250ZW50JTIyJTNBJTdCJTIydmFsdWUlMjIlM0ElMjJobGslMjIlMkMlMjJsdW1Nb2QlMjIlM0E4MCU3RCU3RCU3RCUyQyUyMnBsYWNlaG9sZGVyJTIyJTNBJTdCJTIyY29sb3IlMjIlM0ElN0IlMjJpZCUyMiUzQSUyMkdYektONHg4eGclMjIlMkMlMjJ0eXBlJTIyJTNBJTIyU29saWRDb2xvciUyMiUyQyUyMmNvbnRlbnQlMjIlM0ElN0IlMjJ2YWx1ZSUyMiUzQSUyMmx0MSUyMiUyQyUyMmx1bU1vZCUyMiUzQTUwJTdEJTdEJTdEJTdEJTVEJTJDJTIyaG9yaXpvbnRhbEFsaWduJTIyJTNBJTIyY2VudGVyJTIyJTdEJTVEJTJDJTIycGxhY2Vob2xkZXIlMjIlM0ElN0IlMjJ0ZXh0JTIyJTNBJTIyJUU1JThGJThDJUU1JTg3JUJCJUU4JUJFJTkzJUU1JTg1JUE1JUU1JTg2JTg1JUU1JUFFJUI5JTIyJTdEJTJDJTIyc3R5bGUlMjIlM0ElN0IlMjJwYWRkaW5nJTIyJTNBJTVCMiUyQzQlNUQlMkMlMjJ2ZXJ0aWNhbEFsaWduJTIyJTNBJTIyY2VudGVyJTIyJTdEJTdEJTVE&quot;&gt;API Gateway路由查询请求&lt;/span&gt;" style="rounded=1;whiteSpace=wrap;html=1;" vertex="1" parent="1">
          <mxGeometry x="975" y="100" width="170" height="60" as="geometry" />
        </mxCell>
        <mxCell id="qHw1RcTZy6Dsvkf9iHYT-48" value="" style="edgeStyle=orthogonalEdgeStyle;rounded=0;orthogonalLoop=1;jettySize=auto;html=1;entryX=0.53;entryY=0.037;entryDx=0;entryDy=0;entryPerimeter=0;" edge="1" parent="1">
          <mxGeometry relative="1" as="geometry">
            <mxPoint x="1048" y="361" as="sourcePoint" />
            <mxPoint x="1049.9" y="513.2199999999998" as="targetPoint" />
            <Array as="points">
              <mxPoint x="1048" y="362" />
              <mxPoint x="1050" y="362" />
            </Array>
          </mxGeometry>
        </mxCell>
        <mxCell id="qHw1RcTZy6Dsvkf9iHYT-49" value="发起HTTP请求" style="edgeLabel;html=1;align=center;verticalAlign=middle;resizable=0;points=[];" vertex="1" connectable="0" parent="qHw1RcTZy6Dsvkf9iHYT-48">
          <mxGeometry x="0.0239" y="-2" relative="1" as="geometry">
            <mxPoint as="offset" />
          </mxGeometry>
        </mxCell>
        <mxCell id="qHw1RcTZy6Dsvkf9iHYT-50" value="&lt;span style=&quot;white-space: pre;&quot; data-slate-fragment=&quot;JTVCJTdCJTIydHlwZSUyMiUzQSUyMnJpY2gtdGV4dCUyMiUyQyUyMmNoaWxkcmVuJTIyJTNBJTVCJTdCJTIydHlwZSUyMiUzQSUyMnBhcmFncmFwaCUyMiUyQyUyMmNoaWxkcmVuJTIyJTNBJTVCJTdCJTIydGV4dCUyMiUzQSUyMiU1QyUyMiVFNSVBRSVBMSVFNiVBMCVCOCVFNyVBRSVBMSVFNyU5MCU4NiU1QyUyMiVFNiVBOCVBMSVFNSU5RCU5NyVFOCVCMCU4MyVFNyU5NCVBOCU1QyUyMiVFNiU5RiVBNSVFOCVBRiVBMiVFNiU5QyU4RCVFNSU4QSVBMSU1QyUyMiUyMiUyQyUyMmZvbnRTaXplJTIyJTNBMTQlMkMlMjJjb2xvciUyMiUzQSU3QiUyMmlkJTIyJTNBJTIyU3lYdU5aaFlPdiUyMiUyQyUyMnR5cGUlMjIlM0ElMjJTb2xpZENvbG9yJTIyJTJDJTIyY29udGVudCUyMiUzQSU3QiUyMnZhbHVlJTIyJTNBJTIydHgxJTIyJTJDJTIybHVtTW9kJTIyJTNBODAlN0QlN0QlMkMlMjJsaW5rJTIyJTNBJTdCJTIyY29sb3IlMjIlM0ElN0IlMjJpZCUyMiUzQSUyMmFoOE9fSTRET0wlMjIlMkMlMjJ0eXBlJTIyJTNBJTIyU29saWRDb2xvciUyMiUyQyUyMmNvbnRlbnQlMjIlM0ElN0IlMjJ2YWx1ZSUyMiUzQSUyMmhsayUyMiUyQyUyMmx1bU1vZCUyMiUzQTgwJTdEJTdEJTdEJTJDJTIycGxhY2Vob2xkZXIlMjIlM0ElN0IlMjJjb2xvciUyMiUzQSU3QiUyMmlkJTIyJTNBJTIyR1h6S040eDh4ZyUyMiUyQyUyMnR5cGUlMjIlM0ElMjJTb2xpZENvbG9yJTIyJTJDJTIyY29udGVudCUyMiUzQSU3QiUyMnZhbHVlJTIyJTNBJTIybHQxJTIyJTJDJTIybHVtTW9kJTIyJTNBNTAlN0QlN0QlN0QlN0QlNUQlMkMlMjJob3Jpem9udGFsQWxpZ24lMjIlM0ElMjJjZW50ZXIlMjIlN0QlNUQlMkMlMjJwbGFjZWhvbGRlciUyMiUzQSU3QiUyMnRleHQlMjIlM0ElMjIlRTUlOEYlOEMlRTUlODclQkIlRTglQkUlOTMlRTUlODUlQTUlRTUlODYlODUlRTUlQUUlQjklMjIlN0QlMkMlMjJzdHlsZSUyMiUzQSU3QiUyMnBhZGRpbmclMjIlM0ElNUIyJTJDNCU1RCUyQyUyMnZlcnRpY2FsQWxpZ24lMjIlM0ElMjJjZW50ZXIlMjIlN0QlN0QlNUQ=&quot;&gt;&quot;审核管理&quot;模块调用&quot;查询服务&quot;&lt;/span&gt;" style="rounded=1;whiteSpace=wrap;html=1;" vertex="1" parent="1">
          <mxGeometry x="940" y="301" width="240" height="60" as="geometry" />
        </mxCell>
        <mxCell id="qHw1RcTZy6Dsvkf9iHYT-58" style="edgeStyle=orthogonalEdgeStyle;rounded=0;orthogonalLoop=1;jettySize=auto;html=1;" edge="1" parent="1" source="qHw1RcTZy6Dsvkf9iHYT-53" target="qHw1RcTZy6Dsvkf9iHYT-57">
          <mxGeometry relative="1" as="geometry" />
        </mxCell>
        <mxCell id="qHw1RcTZy6Dsvkf9iHYT-61" value="数据库查询" style="edgeLabel;html=1;align=center;verticalAlign=middle;resizable=0;points=[];" vertex="1" connectable="0" parent="qHw1RcTZy6Dsvkf9iHYT-58">
          <mxGeometry x="0.0084" y="2" relative="1" as="geometry">
            <mxPoint as="offset" />
          </mxGeometry>
        </mxCell>
        <mxCell id="qHw1RcTZy6Dsvkf9iHYT-53" value="&lt;span style=&quot;white-space: pre;&quot; data-slate-fragment=&quot;JTVCJTdCJTIydHlwZSUyMiUzQSUyMnJpY2gtdGV4dCUyMiUyQyUyMmNoaWxkcmVuJTIyJTNBJTVCJTdCJTIydHlwZSUyMiUzQSUyMnBhcmFncmFwaCUyMiUyQyUyMmNoaWxkcmVuJTIyJTNBJTVCJTdCJTIydGV4dCUyMiUzQSUyMiUyMCU1QyUyMiVFNiU4MyU4NSVFNiU4QSVBNSVFNiU5RiVBNSVFOCVBRiVBMiVFNiU5QyU4RCVFNSU4QSVBMSU1QyUyMiVFOCVCRiU5QiVFOCVBMSU4QyVFNCVCRiVBMSVFNiU4MSVBRiVFNiU5RiVBNSVFOCVBRiVBMiUyMiUyQyUyMmZvbnRTaXplJTIyJTNBMTQlMkMlMjJjb2xvciUyMiUzQSU3QiUyMmlkJTIyJTNBJTIyU3lYdU5aaFlPdiUyMiUyQyUyMnR5cGUlMjIlM0ElMjJTb2xpZENvbG9yJTIyJTJDJTIyY29udGVudCUyMiUzQSU3QiUyMnZhbHVlJTIyJTNBJTIydHgxJTIyJTJDJTIybHVtTW9kJTIyJTNBODAlN0QlN0QlMkMlMjJsaW5rJTIyJTNBJTdCJTIyY29sb3IlMjIlM0ElN0IlMjJpZCUyMiUzQSUyMmFoOE9fSTRET0wlMjIlMkMlMjJ0eXBlJTIyJTNBJTIyU29saWRDb2xvciUyMiUyQyUyMmNvbnRlbnQlMjIlM0ElN0IlMjJ2YWx1ZSUyMiUzQSUyMmhsayUyMiUyQyUyMmx1bU1vZCUyMiUzQTgwJTdEJTdEJTdEJTJDJTIycGxhY2Vob2xkZXIlMjIlM0ElN0IlMjJjb2xvciUyMiUzQSU3QiUyMmlkJTIyJTNBJTIyR1h6S040eDh4ZyUyMiUyQyUyMnR5cGUlMjIlM0ElMjJTb2xpZENvbG9yJTIyJTJDJTIyY29udGVudCUyMiUzQSU3QiUyMnZhbHVlJTIyJTNBJTIybHQxJTIyJTJDJTIybHVtTW9kJTIyJTNBNTAlN0QlN0QlN0QlN0QlNUQlMkMlMjJob3Jpem9udGFsQWxpZ24lMjIlM0ElMjJjZW50ZXIlMjIlN0QlNUQlMkMlMjJwbGFjZWhvbGRlciUyMiUzQSU3QiUyMnRleHQlMjIlM0ElMjIlRTUlOEYlOEMlRTUlODclQkIlRTglQkUlOTMlRTUlODUlQTUlRTUlODYlODUlRTUlQUUlQjklMjIlN0QlMkMlMjJzdHlsZSUyMiUzQSU3QiUyMnBhZGRpbmclMjIlM0ElNUIyJTJDNCU1RCUyQyUyMnZlcnRpY2FsQWxpZ24lMjIlM0ElMjJjZW50ZXIlMjIlN0QlN0QlNUQ=&quot;&gt; &quot;情报查询服务&quot;进行信息查询&lt;/span&gt;" style="rounded=1;whiteSpace=wrap;html=1;" vertex="1" parent="1">
          <mxGeometry x="940" y="511" width="230" height="60" as="geometry" />
        </mxCell>
        <mxCell id="qHw1RcTZy6Dsvkf9iHYT-57" value="&lt;span style=&quot;white-space: pre;&quot; data-slate-fragment=&quot;JTVCJTdCJTIydHlwZSUyMiUzQSUyMnJpY2gtdGV4dCUyMiUyQyUyMmNoaWxkcmVuJTIyJTNBJTVCJTdCJTIydHlwZSUyMiUzQSUyMnBhcmFncmFwaCUyMiUyQyUyMmNoaWxkcmVuJTIyJTNBJTVCJTdCJTIydGV4dCUyMiUzQSUyMiVFNiU5NSVCMCVFNiU4RCVBRSVFNSVCQSU5MyVFNiU5RiVBNSVFOCVBRiVBMiUyMiUyQyUyMmZvbnRTaXplJTIyJTNBMTQlMkMlMjJjb2xvciUyMiUzQSU3QiUyMmlkJTIyJTNBJTIyU3lYdU5aaFlPdiUyMiUyQyUyMnR5cGUlMjIlM0ElMjJTb2xpZENvbG9yJTIyJTJDJTIyY29udGVudCUyMiUzQSU3QiUyMnZhbHVlJTIyJTNBJTIydHgxJTIyJTJDJTIybHVtTW9kJTIyJTNBODAlN0QlN0QlMkMlMjJsaW5rJTIyJTNBJTdCJTIyY29sb3IlMjIlM0ElN0IlMjJpZCUyMiUzQSUyMmFoOE9fSTRET0wlMjIlMkMlMjJ0eXBlJTIyJTNBJTIyU29saWRDb2xvciUyMiUyQyUyMmNvbnRlbnQlMjIlM0ElN0IlMjJ2YWx1ZSUyMiUzQSUyMmhsayUyMiUyQyUyMmx1bU1vZCUyMiUzQTgwJTdEJTdEJTdEJTJDJTIycGxhY2Vob2xkZXIlMjIlM0ElN0IlMjJjb2xvciUyMiUzQSU3QiUyMmlkJTIyJTNBJTIyR1h6S040eDh4ZyUyMiUyQyUyMnR5cGUlMjIlM0ElMjJTb2xpZENvbG9yJTIyJTJDJTIyY29udGVudCUyMiUzQSU3QiUyMnZhbHVlJTIyJTNBJTIybHQxJTIyJTJDJTIybHVtTW9kJTIyJTNBNTAlN0QlN0QlN0QlN0QlNUQlMkMlMjJob3Jpem9udGFsQWxpZ24lMjIlM0ElMjJjZW50ZXIlMjIlN0QlNUQlMkMlMjJwbGFjZWhvbGRlciUyMiUzQSU3QiUyMnRleHQlMjIlM0ElMjIlRTUlOEYlOEMlRTUlODclQkIlRTglQkUlOTMlRTUlODUlQTUlRTUlODYlODUlRTUlQUUlQjklMjIlN0QlMkMlMjJzdHlsZSUyMiUzQSU3QiUyMnBhZGRpbmclMjIlM0ElNUIyJTJDNCU1RCUyQyUyMnZlcnRpY2FsQWxpZ24lMjIlM0ElMjJjZW50ZXIlMjIlN0QlN0QlNUQ=&quot;&gt;数据库查询信息并返回值&lt;/span&gt;" style="rounded=1;whiteSpace=wrap;html=1;" vertex="1" parent="1">
          <mxGeometry x="960" y="951" width="190" height="60" as="geometry" />
        </mxCell>
        <mxCell id="qHw1RcTZy6Dsvkf9iHYT-59" value="" style="endArrow=classic;html=1;rounded=0;exitX=0.75;exitY=0;exitDx=0;exitDy=0;entryX=0.718;entryY=1.033;entryDx=0;entryDy=0;entryPerimeter=0;" edge="1" parent="1" source="qHw1RcTZy6Dsvkf9iHYT-57" target="qHw1RcTZy6Dsvkf9iHYT-53">
          <mxGeometry width="50" height="50" relative="1" as="geometry">
            <mxPoint x="1050" y="820" as="sourcePoint" />
            <mxPoint x="1100" y="770" as="targetPoint" />
          </mxGeometry>
        </mxCell>
        <mxCell id="qHw1RcTZy6Dsvkf9iHYT-123" value="成功" style="edgeLabel;html=1;align=center;verticalAlign=middle;resizable=0;points=[];" vertex="1" connectable="0" parent="qHw1RcTZy6Dsvkf9iHYT-59">
          <mxGeometry x="-0.1599" y="3" relative="1" as="geometry">
            <mxPoint as="offset" />
          </mxGeometry>
        </mxCell>
        <mxCell id="qHw1RcTZy6Dsvkf9iHYT-60" style="edgeStyle=orthogonalEdgeStyle;rounded=0;orthogonalLoop=1;jettySize=auto;html=1;exitX=0.75;exitY=0;exitDx=0;exitDy=0;entryX=0.718;entryY=1.04;entryDx=0;entryDy=0;entryPerimeter=0;" edge="1" parent="1" source="qHw1RcTZy6Dsvkf9iHYT-53" target="qHw1RcTZy6Dsvkf9iHYT-50">
          <mxGeometry relative="1" as="geometry" />
        </mxCell>
        <mxCell id="qHw1RcTZy6Dsvkf9iHYT-62" style="edgeStyle=orthogonalEdgeStyle;rounded=0;orthogonalLoop=1;jettySize=auto;html=1;exitX=0.75;exitY=0;exitDx=0;exitDy=0;entryX=0.855;entryY=1.003;entryDx=0;entryDy=0;entryPerimeter=0;" edge="1" parent="1" source="qHw1RcTZy6Dsvkf9iHYT-50" target="qHw1RcTZy6Dsvkf9iHYT-47">
          <mxGeometry relative="1" as="geometry" />
        </mxCell>
        <mxCell id="qHw1RcTZy6Dsvkf9iHYT-63" value="Http Response" style="edgeLabel;html=1;align=center;verticalAlign=middle;resizable=0;points=[];" vertex="1" connectable="0" parent="qHw1RcTZy6Dsvkf9iHYT-62">
          <mxGeometry x="0.1739" y="-1" relative="1" as="geometry">
            <mxPoint as="offset" />
          </mxGeometry>
        </mxCell>
        <mxCell id="qHw1RcTZy6Dsvkf9iHYT-77" style="edgeStyle=orthogonalEdgeStyle;rounded=0;orthogonalLoop=1;jettySize=auto;html=1;entryX=0.5;entryY=0;entryDx=0;entryDy=0;" edge="1" parent="1" source="qHw1RcTZy6Dsvkf9iHYT-64" target="qHw1RcTZy6Dsvkf9iHYT-76">
          <mxGeometry relative="1" as="geometry" />
        </mxCell>
        <mxCell id="qHw1RcTZy6Dsvkf9iHYT-64" value="&lt;span style=&quot;white-space: pre;&quot; data-slate-fragment=&quot;JTVCJTdCJTIydHlwZSUyMiUzQSUyMnJpY2gtdGV4dCUyMiUyQyUyMmNoaWxkcmVuJTIyJTNBJTVCJTdCJTIydHlwZSUyMiUzQSUyMnBhcmFncmFwaCUyMiUyQyUyMmNoaWxkcmVuJTIyJTNBJTVCJTdCJTIydGV4dCUyMiUzQSUyMkFQSSUyMEdhdGV3YXklRTglQjclQUYlRTclOTQlQjElRTYlOUYlQTUlRTglQUYlQTIlRTglQUYlQjclRTYlQjElODIlMjIlMkMlMjJmb250U2l6ZSUyMiUzQTE0JTJDJTIyY29sb3IlMjIlM0ElN0IlMjJpZCUyMiUzQSUyMlN5WHVOWmhZT3YlMjIlMkMlMjJ0eXBlJTIyJTNBJTIyU29saWRDb2xvciUyMiUyQyUyMmNvbnRlbnQlMjIlM0ElN0IlMjJ2YWx1ZSUyMiUzQSUyMnR4MSUyMiUyQyUyMmx1bU1vZCUyMiUzQTgwJTdEJTdEJTJDJTIybGluayUyMiUzQSU3QiUyMmNvbG9yJTIyJTNBJTdCJTIyaWQlMjIlM0ElMjJhaDhPX0k0RE9MJTIyJTJDJTIydHlwZSUyMiUzQSUyMlNvbGlkQ29sb3IlMjIlMkMlMjJjb250ZW50JTIyJTNBJTdCJTIydmFsdWUlMjIlM0ElMjJobGslMjIlMkMlMjJsdW1Nb2QlMjIlM0E4MCU3RCU3RCU3RCUyQyUyMnBsYWNlaG9sZGVyJTIyJTNBJTdCJTIyY29sb3IlMjIlM0ElN0IlMjJpZCUyMiUzQSUyMkdYektONHg4eGclMjIlMkMlMjJ0eXBlJTIyJTNBJTIyU29saWRDb2xvciUyMiUyQyUyMmNvbnRlbnQlMjIlM0ElN0IlMjJ2YWx1ZSUyMiUzQSUyMmx0MSUyMiUyQyUyMmx1bU1vZCUyMiUzQTUwJTdEJTdEJTdEJTdEJTVEJTJDJTIyaG9yaXpvbnRhbEFsaWduJTIyJTNBJTIyY2VudGVyJTIyJTdEJTVEJTJDJTIycGxhY2Vob2xkZXIlMjIlM0ElN0IlMjJ0ZXh0JTIyJTNBJTIyJUU1JThGJThDJUU1JTg3JUJCJUU4JUJFJTkzJUU1JTg1JUE1JUU1JTg2JTg1JUU1JUFFJUI5JTIyJTdEJTJDJTIyc3R5bGUlMjIlM0ElN0IlMjJwYWRkaW5nJTIyJTNBJTVCMiUyQzQlNUQlMkMlMjJ2ZXJ0aWNhbEFsaWduJTIyJTNBJTIyY2VudGVyJTIyJTdEJTdEJTVE&quot;&gt;API Gateway路由查询请求&lt;/span&gt;" style="rounded=1;whiteSpace=wrap;html=1;" vertex="1" parent="1">
          <mxGeometry x="1270" y="100" width="160" height="60" as="geometry" />
        </mxCell>
        <mxCell id="qHw1RcTZy6Dsvkf9iHYT-67" value="&lt;span style=&quot;white-space: pre;&quot; data-slate-fragment=&quot;JTVCJTdCJTIydHlwZSUyMiUzQSUyMnJpY2gtdGV4dCUyMiUyQyUyMmNoaWxkcmVuJTIyJTNBJTVCJTdCJTIydHlwZSUyMiUzQSUyMnBhcmFncmFwaCUyMiUyQyUyMmNoaWxkcmVuJTIyJTNBJTVCJTdCJTIydGV4dCUyMiUzQSUyMiVFNiU4MyU4NSVFNiU4QSVBNSVFNSVBNCU4NCVFNyU5MCU4NiVFNiU5MyU4RCVFNCVCRCU5QyUyMiUyQyUyMmZvbnRTaXplJTIyJTNBMTQlMkMlMjJjb2xvciUyMiUzQSU3QiUyMmlkJTIyJTNBJTIyU3lYdU5aaFlPdiUyMiUyQyUyMnR5cGUlMjIlM0ElMjJTb2xpZENvbG9yJTIyJTJDJTIyY29udGVudCUyMiUzQSU3QiUyMnZhbHVlJTIyJTNBJTIydHgxJTIyJTJDJTIybHVtTW9kJTIyJTNBODAlN0QlN0QlMkMlMjJsaW5rJTIyJTNBJTdCJTIyY29sb3IlMjIlM0ElN0IlMjJpZCUyMiUzQSUyMmFoOE9fSTRET0wlMjIlMkMlMjJ0eXBlJTIyJTNBJTIyU29saWRDb2xvciUyMiUyQyUyMmNvbnRlbnQlMjIlM0ElN0IlMjJ2YWx1ZSUyMiUzQSUyMmhsayUyMiUyQyUyMmx1bU1vZCUyMiUzQTgwJTdEJTdEJTdEJTJDJTIycGxhY2Vob2xkZXIlMjIlM0ElN0IlMjJjb2xvciUyMiUzQSU3QiUyMmlkJTIyJTNBJTIyR1h6S040eDh4ZyUyMiUyQyUyMnR5cGUlMjIlM0ElMjJTb2xpZENvbG9yJTIyJTJDJTIyY29udGVudCUyMiUzQSU3QiUyMnZhbHVlJTIyJTNBJTIybHQxJTIyJTJDJTIybHVtTW9kJTIyJTNBNTAlN0QlN0QlN0QlN0QlNUQlMkMlMjJob3Jpem9udGFsQWxpZ24lMjIlM0ElMjJjZW50ZXIlMjIlN0QlNUQlMkMlMjJwbGFjZWhvbGRlciUyMiUzQSU3QiUyMnRleHQlMjIlM0ElMjIlRTUlOEYlOEMlRTUlODclQkIlRTglQkUlOTMlRTUlODUlQTUlRTUlODYlODUlRTUlQUUlQjklMjIlN0QlMkMlMjJzdHlsZSUyMiUzQSU3QiUyMnBhZGRpbmclMjIlM0ElNUIyJTJDNCU1RCUyQyUyMnZlcnRpY2FsQWxpZ24lMjIlM0ElMjJjZW50ZXIlMjIlN0QlN0QlNUQ=&quot;&gt;触发&quot;情报任务登记操作&quot;&lt;/span&gt;" style="rounded=1;whiteSpace=wrap;html=1;" vertex="1" parent="1">
          <mxGeometry x="1264" y="361" width="170" height="60" as="geometry" />
        </mxCell>
        <mxCell id="qHw1RcTZy6Dsvkf9iHYT-93" value="" style="edgeStyle=orthogonalEdgeStyle;rounded=0;orthogonalLoop=1;jettySize=auto;html=1;" edge="1" parent="1" source="qHw1RcTZy6Dsvkf9iHYT-70">
          <mxGeometry relative="1" as="geometry">
            <mxPoint x="1569" y="500" as="targetPoint" />
            <Array as="points">
              <mxPoint x="1569" y="480" />
              <mxPoint x="1569" y="480" />
            </Array>
          </mxGeometry>
        </mxCell>
        <mxCell id="qHw1RcTZy6Dsvkf9iHYT-70" value="&lt;span style=&quot;white-space: pre;&quot; data-slate-fragment=&quot;JTVCJTdCJTIydHlwZSUyMiUzQSUyMnJpY2gtdGV4dCUyMiUyQyUyMmNoaWxkcmVuJTIyJTNBJTVCJTdCJTIydHlwZSUyMiUzQSUyMnBhcmFncmFwaCUyMiUyQyUyMmNoaWxkcmVuJTIyJTNBJTVCJTdCJTIydGV4dCUyMiUzQSUyMiVFNiU4MyU4NSVFNiU4QSVBNSVFNSU4OCU4NiVFNyVCQSVBNyVFNiU5MyU4RCVFNCVCRCU5QyUyMiUyQyUyMmZvbnRTaXplJTIyJTNBMTQlMkMlMjJjb2xvciUyMiUzQSU3QiUyMmlkJTIyJTNBJTIyU3lYdU5aaFlPdiUyMiUyQyUyMnR5cGUlMjIlM0ElMjJTb2xpZENvbG9yJTIyJTJDJTIyY29udGVudCUyMiUzQSU3QiUyMnZhbHVlJTIyJTNBJTIydHgxJTIyJTJDJTIybHVtTW9kJTIyJTNBODAlN0QlN0QlMkMlMjJsaW5rJTIyJTNBJTdCJTIyY29sb3IlMjIlM0ElN0IlMjJpZCUyMiUzQSUyMmFoOE9fSTRET0wlMjIlMkMlMjJ0eXBlJTIyJTNBJTIyU29saWRDb2xvciUyMiUyQyUyMmNvbnRlbnQlMjIlM0ElN0IlMjJ2YWx1ZSUyMiUzQSUyMmhsayUyMiUyQyUyMmx1bU1vZCUyMiUzQTgwJTdEJTdEJTdEJTJDJTIycGxhY2Vob2xkZXIlMjIlM0ElN0IlMjJjb2xvciUyMiUzQSU3QiUyMmlkJTIyJTNBJTIyR1h6S040eDh4ZyUyMiUyQyUyMnR5cGUlMjIlM0ElMjJTb2xpZENvbG9yJTIyJTJDJTIyY29udGVudCUyMiUzQSU3QiUyMnZhbHVlJTIyJTNBJTIybHQxJTIyJTJDJTIybHVtTW9kJTIyJTNBNTAlN0QlN0QlN0QlN0QlNUQlMkMlMjJob3Jpem9udGFsQWxpZ24lMjIlM0ElMjJjZW50ZXIlMjIlN0QlNUQlMkMlMjJwbGFjZWhvbGRlciUyMiUzQSU3QiUyMnRleHQlMjIlM0ElMjIlRTUlOEYlOEMlRTUlODclQkIlRTglQkUlOTMlRTUlODUlQTUlRTUlODYlODUlRTUlQUUlQjklMjIlN0QlMkMlMjJzdHlsZSUyMiUzQSU3QiUyMnBhZGRpbmclMjIlM0ElNUIyJTJDNCU1RCUyQyUyMnZlcnRpY2FsQWxpZ24lMjIlM0ElMjJjZW50ZXIlMjIlN0QlN0QlNUQ=&quot;&gt;情报编辑操作&lt;/span&gt;" style="rounded=1;whiteSpace=wrap;html=1;" vertex="1" parent="1">
          <mxGeometry x="1484" y="361" width="170" height="60" as="geometry" />
        </mxCell>
        <mxCell id="qHw1RcTZy6Dsvkf9iHYT-72" value="&lt;span style=&quot;white-space: pre;&quot; data-slate-fragment=&quot;JTVCJTdCJTIydHlwZSUyMiUzQSUyMnJpY2gtdGV4dCUyMiUyQyUyMmNoaWxkcmVuJTIyJTNBJTVCJTdCJTIydHlwZSUyMiUzQSUyMnBhcmFncmFwaCUyMiUyQyUyMmNoaWxkcmVuJTIyJTNBJTVCJTdCJTIydGV4dCUyMiUzQSUyMiVFOCVCMCU4MyVFNyU5NCVBOCVFNiU4MyU4NSVFNiU4QSVBNSVFNSVBNCU4NCVFNyU5MCU4NiVFNiU5QyU4RCVFNSU4QSVBMSUyMiUyQyUyMmZvbnRTaXplJTIyJTNBMTQlMkMlMjJjb2xvciUyMiUzQSU3QiUyMmlkJTIyJTNBJTIyU3lYdU5aaFlPdiUyMiUyQyUyMnR5cGUlMjIlM0ElMjJTb2xpZENvbG9yJTIyJTJDJTIyY29udGVudCUyMiUzQSU3QiUyMnZhbHVlJTIyJTNBJTIydHgxJTIyJTJDJTIybHVtTW9kJTIyJTNBODAlN0QlN0QlMkMlMjJsaW5rJTIyJTNBJTdCJTIyY29sb3IlMjIlM0ElN0IlMjJpZCUyMiUzQSUyMmFoOE9fSTRET0wlMjIlMkMlMjJ0eXBlJTIyJTNBJTIyU29saWRDb2xvciUyMiUyQyUyMmNvbnRlbnQlMjIlM0ElN0IlMjJ2YWx1ZSUyMiUzQSUyMmhsayUyMiUyQyUyMmx1bU1vZCUyMiUzQTgwJTdEJTdEJTdEJTJDJTIycGxhY2Vob2xkZXIlMjIlM0ElN0IlMjJjb2xvciUyMiUzQSU3QiUyMmlkJTIyJTNBJTIyR1h6S040eDh4ZyUyMiUyQyUyMnR5cGUlMjIlM0ElMjJTb2xpZENvbG9yJTIyJTJDJTIyY29udGVudCUyMiUzQSU3QiUyMnZhbHVlJTIyJTNBJTIybHQxJTIyJTJDJTIybHVtTW9kJTIyJTNBNTAlN0QlN0QlN0QlN0QlNUQlMkMlMjJob3Jpem9udGFsQWxpZ24lMjIlM0ElMjJjZW50ZXIlMjIlN0QlNUQlMkMlMjJwbGFjZWhvbGRlciUyMiUzQSU3QiUyMnRleHQlMjIlM0ElMjIlRTUlOEYlOEMlRTUlODclQkIlRTglQkUlOTMlRTUlODUlQTUlRTUlODYlODUlRTUlQUUlQjklMjIlN0QlMkMlMjJzdHlsZSUyMiUzQSU3QiUyMnBhZGRpbmclMjIlM0ElNUIyJTJDNCU1RCUyQyUyMnZlcnRpY2FsQWxpZ24lMjIlM0ElMjJjZW50ZXIlMjIlN0QlN0QlNUQ=&quot;&gt;调用任务处理服务&lt;/span&gt;" style="rounded=1;whiteSpace=wrap;html=1;" vertex="1" parent="1">
          <mxGeometry x="1260" y="496" width="160" height="60" as="geometry" />
        </mxCell>
        <mxCell id="qHw1RcTZy6Dsvkf9iHYT-75" value="" style="edgeStyle=orthogonalEdgeStyle;rounded=0;orthogonalLoop=1;jettySize=auto;html=1;" edge="1" parent="1" source="qHw1RcTZy6Dsvkf9iHYT-73" target="qHw1RcTZy6Dsvkf9iHYT-74">
          <mxGeometry relative="1" as="geometry" />
        </mxCell>
        <mxCell id="qHw1RcTZy6Dsvkf9iHYT-120" style="edgeStyle=orthogonalEdgeStyle;rounded=0;orthogonalLoop=1;jettySize=auto;html=1;exitX=0.25;exitY=1;exitDx=0;exitDy=0;" edge="1" parent="1" source="qHw1RcTZy6Dsvkf9iHYT-73" target="qHw1RcTZy6Dsvkf9iHYT-119">
          <mxGeometry relative="1" as="geometry" />
        </mxCell>
        <mxCell id="qHw1RcTZy6Dsvkf9iHYT-73" value="&lt;span style=&quot;white-space: pre;&quot; data-slate-fragment=&quot;JTVCJTdCJTIydHlwZSUyMiUzQSUyMnJpY2gtdGV4dCUyMiUyQyUyMmNoaWxkcmVuJTIyJTNBJTVCJTdCJTIydHlwZSUyMiUzQSUyMnBhcmFncmFwaCUyMiUyQyUyMmNoaWxkcmVuJTIyJTNBJTVCJTdCJTIydGV4dCUyMiUzQSUyMiVFNSVCNyVCMiVFNSVBNCU4NCVFNyU5MCU4NiVFNiU4MyU4NSVFNiU4QSVBNSVFNSU4NSVBNSVFNSVCQSU5MyUyMiUyQyUyMmZvbnRTaXplJTIyJTNBMTQlMkMlMjJjb2xvciUyMiUzQSU3QiUyMmlkJTIyJTNBJTIyU3lYdU5aaFlPdiUyMiUyQyUyMnR5cGUlMjIlM0ElMjJTb2xpZENvbG9yJTIyJTJDJTIyY29udGVudCUyMiUzQSU3QiUyMnZhbHVlJTIyJTNBJTIydHgxJTIyJTJDJTIybHVtTW9kJTIyJTNBODAlN0QlN0QlMkMlMjJsaW5rJTIyJTNBJTdCJTIyY29sb3IlMjIlM0ElN0IlMjJpZCUyMiUzQSUyMmFoOE9fSTRET0wlMjIlMkMlMjJ0eXBlJTIyJTNBJTIyU29saWRDb2xvciUyMiUyQyUyMmNvbnRlbnQlMjIlM0ElN0IlMjJ2YWx1ZSUyMiUzQSUyMmhsayUyMiUyQyUyMmx1bU1vZCUyMiUzQTgwJTdEJTdEJTdEJTJDJTIycGxhY2Vob2xkZXIlMjIlM0ElN0IlMjJjb2xvciUyMiUzQSU3QiUyMmlkJTIyJTNBJTIyR1h6S040eDh4ZyUyMiUyQyUyMnR5cGUlMjIlM0ElMjJTb2xpZENvbG9yJTIyJTJDJTIyY29udGVudCUyMiUzQSU3QiUyMnZhbHVlJTIyJTNBJTIybHQxJTIyJTJDJTIybHVtTW9kJTIyJTNBNTAlN0QlN0QlN0QlN0QlNUQlMkMlMjJob3Jpem9udGFsQWxpZ24lMjIlM0ElMjJjZW50ZXIlMjIlN0QlNUQlMkMlMjJwbGFjZWhvbGRlciUyMiUzQSU3QiUyMnRleHQlMjIlM0ElMjIlRTUlOEYlOEMlRTUlODclQkIlRTglQkUlOTMlRTUlODUlQTUlRTUlODYlODUlRTUlQUUlQjklMjIlN0QlMkMlMjJzdHlsZSUyMiUzQSU3QiUyMnBhZGRpbmclMjIlM0ElNUIyJTJDNCU1RCUyQyUyMnZlcnRpY2FsQWxpZ24lMjIlM0ElMjJjZW50ZXIlMjIlN0QlN0QlNUQ=&quot;&gt;任务入库/原始情报入库&lt;/span&gt;" style="rounded=1;whiteSpace=wrap;html=1;strokeColor=#660000;strokeWidth=2;" vertex="1" parent="1">
          <mxGeometry x="1490" y="903" width="180" height="60" as="geometry" />
        </mxCell>
        <mxCell id="qHw1RcTZy6Dsvkf9iHYT-74" value="任务入库" style="html=1;dashed=0;whiteSpace=wrap;shape=partialRectangle;right=0;" vertex="1" parent="1">
          <mxGeometry x="1530" y="1011" width="100" height="30" as="geometry" />
        </mxCell>
        <mxCell id="qHw1RcTZy6Dsvkf9iHYT-82" value="" style="edgeStyle=orthogonalEdgeStyle;rounded=0;orthogonalLoop=1;jettySize=auto;html=1;" edge="1" parent="1" source="qHw1RcTZy6Dsvkf9iHYT-76" target="qHw1RcTZy6Dsvkf9iHYT-67">
          <mxGeometry relative="1" as="geometry" />
        </mxCell>
        <mxCell id="qHw1RcTZy6Dsvkf9iHYT-88" value="" style="edgeStyle=orthogonalEdgeStyle;rounded=0;orthogonalLoop=1;jettySize=auto;html=1;" edge="1" parent="1" source="qHw1RcTZy6Dsvkf9iHYT-76" target="qHw1RcTZy6Dsvkf9iHYT-70">
          <mxGeometry relative="1" as="geometry">
            <mxPoint x="1430" y="310" as="targetPoint" />
          </mxGeometry>
        </mxCell>
        <mxCell id="qHw1RcTZy6Dsvkf9iHYT-89" value="情报完整" style="edgeLabel;html=1;align=center;verticalAlign=middle;resizable=0;points=[];" vertex="1" connectable="0" parent="qHw1RcTZy6Dsvkf9iHYT-88">
          <mxGeometry x="-0.26" y="-4" relative="1" as="geometry">
            <mxPoint as="offset" />
          </mxGeometry>
        </mxCell>
        <mxCell id="qHw1RcTZy6Dsvkf9iHYT-76" value="情报不完整" style="shape=rhombus;html=1;dashed=0;whiteSpace=wrap;perimeter=rhombusPerimeter;" vertex="1" parent="1">
          <mxGeometry x="1320" y="285" width="60" height="50" as="geometry" />
        </mxCell>
        <mxCell id="qHw1RcTZy6Dsvkf9iHYT-91" style="edgeStyle=orthogonalEdgeStyle;rounded=0;orthogonalLoop=1;jettySize=auto;html=1;entryX=0.553;entryY=0.043;entryDx=0;entryDy=0;entryPerimeter=0;" edge="1" parent="1" source="qHw1RcTZy6Dsvkf9iHYT-67" target="qHw1RcTZy6Dsvkf9iHYT-72">
          <mxGeometry relative="1" as="geometry" />
        </mxCell>
        <mxCell id="qHw1RcTZy6Dsvkf9iHYT-97" value="" style="edgeStyle=orthogonalEdgeStyle;rounded=0;orthogonalLoop=1;jettySize=auto;html=1;" edge="1" parent="1" source="qHw1RcTZy6Dsvkf9iHYT-94" target="qHw1RcTZy6Dsvkf9iHYT-95">
          <mxGeometry relative="1" as="geometry" />
        </mxCell>
        <mxCell id="qHw1RcTZy6Dsvkf9iHYT-103" value="否：传输" style="edgeLabel;html=1;align=center;verticalAlign=middle;resizable=0;points=[];" vertex="1" connectable="0" parent="qHw1RcTZy6Dsvkf9iHYT-97">
          <mxGeometry x="-0.1051" y="-1" relative="1" as="geometry">
            <mxPoint as="offset" />
          </mxGeometry>
        </mxCell>
        <mxCell id="qHw1RcTZy6Dsvkf9iHYT-101" value="" style="edgeStyle=orthogonalEdgeStyle;rounded=0;orthogonalLoop=1;jettySize=auto;html=1;entryX=0.5;entryY=0;entryDx=0;entryDy=0;" edge="1" parent="1" source="qHw1RcTZy6Dsvkf9iHYT-94" target="qHw1RcTZy6Dsvkf9iHYT-98">
          <mxGeometry relative="1" as="geometry">
            <mxPoint x="1660" y="530" as="targetPoint" />
          </mxGeometry>
        </mxCell>
        <mxCell id="qHw1RcTZy6Dsvkf9iHYT-102" value="是：传输参数" style="edgeLabel;html=1;align=center;verticalAlign=middle;resizable=0;points=[];" vertex="1" connectable="0" parent="qHw1RcTZy6Dsvkf9iHYT-101">
          <mxGeometry x="-0.1221" relative="1" as="geometry">
            <mxPoint x="1" as="offset" />
          </mxGeometry>
        </mxCell>
        <mxCell id="qHw1RcTZy6Dsvkf9iHYT-94" value="情报是否加工" style="rhombus;whiteSpace=wrap;html=1;" vertex="1" parent="1">
          <mxGeometry x="1533.5" y="500" width="71" height="60" as="geometry" />
        </mxCell>
        <mxCell id="qHw1RcTZy6Dsvkf9iHYT-109" style="edgeStyle=orthogonalEdgeStyle;rounded=0;orthogonalLoop=1;jettySize=auto;html=1;" edge="1" parent="1" source="qHw1RcTZy6Dsvkf9iHYT-95" target="qHw1RcTZy6Dsvkf9iHYT-73">
          <mxGeometry relative="1" as="geometry">
            <Array as="points">
              <mxPoint x="1570" y="750" />
              <mxPoint x="1570" y="750" />
            </Array>
          </mxGeometry>
        </mxCell>
        <mxCell id="qHw1RcTZy6Dsvkf9iHYT-125" style="edgeStyle=orthogonalEdgeStyle;rounded=0;orthogonalLoop=1;jettySize=auto;html=1;entryX=0;entryY=0.5;entryDx=0;entryDy=0;exitX=0;exitY=0.5;exitDx=0;exitDy=0;strokeColor=#660000;strokeWidth=2;" edge="1" parent="1" source="qHw1RcTZy6Dsvkf9iHYT-95" target="qHw1RcTZy6Dsvkf9iHYT-70">
          <mxGeometry relative="1" as="geometry" />
        </mxCell>
        <mxCell id="qHw1RcTZy6Dsvkf9iHYT-126" value="Http Reponse" style="edgeLabel;html=1;align=center;verticalAlign=middle;resizable=0;points=[];" vertex="1" connectable="0" parent="qHw1RcTZy6Dsvkf9iHYT-125">
          <mxGeometry x="-0.093" y="-2" relative="1" as="geometry">
            <mxPoint as="offset" />
          </mxGeometry>
        </mxCell>
        <mxCell id="qHw1RcTZy6Dsvkf9iHYT-95" value="&lt;span style=&quot;white-space: pre;&quot;&gt;调用情报处理服务（拆分合并）&lt;/span&gt;" style="rounded=1;whiteSpace=wrap;html=1;" vertex="1" parent="1">
          <mxGeometry x="1479" y="589" width="179" height="60" as="geometry" />
        </mxCell>
        <mxCell id="qHw1RcTZy6Dsvkf9iHYT-98" value="&lt;span style=&quot;white-space: pre;&quot;&gt;调用情报处理服务（分级）&lt;/span&gt;" style="rounded=1;whiteSpace=wrap;html=1;" vertex="1" parent="1">
          <mxGeometry x="1670" y="588" width="179" height="60" as="geometry" />
        </mxCell>
        <mxCell id="qHw1RcTZy6Dsvkf9iHYT-108" value="" style="edgeStyle=orthogonalEdgeStyle;rounded=0;orthogonalLoop=1;jettySize=auto;html=1;" edge="1" parent="1" source="qHw1RcTZy6Dsvkf9iHYT-104" target="qHw1RcTZy6Dsvkf9iHYT-106">
          <mxGeometry relative="1" as="geometry" />
        </mxCell>
        <mxCell id="qHw1RcTZy6Dsvkf9iHYT-104" value="&lt;span style=&quot;white-space: pre;&quot; data-slate-fragment=&quot;JTVCJTdCJTIydHlwZSUyMiUzQSUyMnJpY2gtdGV4dCUyMiUyQyUyMmNoaWxkcmVuJTIyJTNBJTVCJTdCJTIydHlwZSUyMiUzQSUyMnBhcmFncmFwaCUyMiUyQyUyMmNoaWxkcmVuJTIyJTNBJTVCJTdCJTIydGV4dCUyMiUzQSUyMiVFNSVCNyVCMiVFNSVBNCU4NCVFNyU5MCU4NiVFNiU4MyU4NSVFNiU4QSVBNSVFNSU4NSVBNSVFNSVCQSU5MyUyMiUyQyUyMmZvbnRTaXplJTIyJTNBMTQlMkMlMjJjb2xvciUyMiUzQSU3QiUyMmlkJTIyJTNBJTIyU3lYdU5aaFlPdiUyMiUyQyUyMnR5cGUlMjIlM0ElMjJTb2xpZENvbG9yJTIyJTJDJTIyY29udGVudCUyMiUzQSU3QiUyMnZhbHVlJTIyJTNBJTIydHgxJTIyJTJDJTIybHVtTW9kJTIyJTNBODAlN0QlN0QlMkMlMjJsaW5rJTIyJTNBJTdCJTIyY29sb3IlMjIlM0ElN0IlMjJpZCUyMiUzQSUyMmFoOE9fSTRET0wlMjIlMkMlMjJ0eXBlJTIyJTNBJTIyU29saWRDb2xvciUyMiUyQyUyMmNvbnRlbnQlMjIlM0ElN0IlMjJ2YWx1ZSUyMiUzQSUyMmhsayUyMiUyQyUyMmx1bU1vZCUyMiUzQTgwJTdEJTdEJTdEJTJDJTIycGxhY2Vob2xkZXIlMjIlM0ElN0IlMjJjb2xvciUyMiUzQSU3QiUyMmlkJTIyJTNBJTIyR1h6S040eDh4ZyUyMiUyQyUyMnR5cGUlMjIlM0ElMjJTb2xpZENvbG9yJTIyJTJDJTIyY29udGVudCUyMiUzQSU3QiUyMnZhbHVlJTIyJTNBJTIybHQxJTIyJTJDJTIybHVtTW9kJTIyJTNBNTAlN0QlN0QlN0QlN0QlNUQlMkMlMjJob3Jpem9udGFsQWxpZ24lMjIlM0ElMjJjZW50ZXIlMjIlN0QlNUQlMkMlMjJwbGFjZWhvbGRlciUyMiUzQSU3QiUyMnRleHQlMjIlM0ElMjIlRTUlOEYlOEMlRTUlODclQkIlRTglQkUlOTMlRTUlODUlQTUlRTUlODYlODUlRTUlQUUlQjklMjIlN0QlMkMlMjJzdHlsZSUyMiUzQSU3QiUyMnBhZGRpbmclMjIlM0ElNUIyJTJDNCU1RCUyQyUyMnZlcnRpY2FsQWxpZ24lMjIlM0ElMjJjZW50ZXIlMjIlN0QlN0QlNUQ=&quot;&gt;情报处理结果入库&lt;/span&gt;" style="rounded=1;whiteSpace=wrap;html=1;" vertex="1" parent="1">
          <mxGeometry x="1690" y="903" width="180" height="60" as="geometry" />
        </mxCell>
        <mxCell id="qHw1RcTZy6Dsvkf9iHYT-105" style="edgeStyle=orthogonalEdgeStyle;rounded=0;orthogonalLoop=1;jettySize=auto;html=1;entryX=0.387;entryY=0.06;entryDx=0;entryDy=0;entryPerimeter=0;" edge="1" parent="1" source="qHw1RcTZy6Dsvkf9iHYT-98" target="qHw1RcTZy6Dsvkf9iHYT-104">
          <mxGeometry relative="1" as="geometry" />
        </mxCell>
        <mxCell id="qHw1RcTZy6Dsvkf9iHYT-137" value="数据库插入" style="edgeLabel;html=1;align=center;verticalAlign=middle;resizable=0;points=[];" vertex="1" connectable="0" parent="qHw1RcTZy6Dsvkf9iHYT-105">
          <mxGeometry x="-0.1484" y="1" relative="1" as="geometry">
            <mxPoint y="-1" as="offset" />
          </mxGeometry>
        </mxCell>
        <mxCell id="qHw1RcTZy6Dsvkf9iHYT-106" value="已处理情报入库" style="html=1;dashed=0;whiteSpace=wrap;shape=partialRectangle;right=0;" vertex="1" parent="1">
          <mxGeometry x="1730" y="1012" width="100" height="29" as="geometry" />
        </mxCell>
        <mxCell id="qHw1RcTZy6Dsvkf9iHYT-110" value="原始情报" style="html=1;dashed=0;whiteSpace=wrap;shape=partialRectangle;right=0;" vertex="1" parent="1">
          <mxGeometry x="245" y="1028" width="100" height="30" as="geometry" />
        </mxCell>
        <mxCell id="qHw1RcTZy6Dsvkf9iHYT-115" value="" style="endArrow=classic;html=1;rounded=0;exitX=1.017;exitY=0.877;exitDx=0;exitDy=0;entryX=0.75;entryY=1;entryDx=0;entryDy=0;exitPerimeter=0;strokeColor=#660000;strokeWidth=2;" edge="1" parent="1" source="qHw1RcTZy6Dsvkf9iHYT-19" target="qHw1RcTZy6Dsvkf9iHYT-18">
          <mxGeometry width="50" height="50" relative="1" as="geometry">
            <mxPoint x="460" y="830" as="sourcePoint" />
            <mxPoint x="510" y="780" as="targetPoint" />
            <Array as="points">
              <mxPoint x="650" y="1000" />
            </Array>
          </mxGeometry>
        </mxCell>
        <mxCell id="qHw1RcTZy6Dsvkf9iHYT-116" value="入库成功" style="edgeLabel;html=1;align=center;verticalAlign=middle;resizable=0;points=[];" vertex="1" connectable="0" parent="qHw1RcTZy6Dsvkf9iHYT-115">
          <mxGeometry x="0.3646" y="-2" relative="1" as="geometry">
            <mxPoint as="offset" />
          </mxGeometry>
        </mxCell>
        <mxCell id="qHw1RcTZy6Dsvkf9iHYT-119" value="原始情报入库" style="html=1;dashed=0;whiteSpace=wrap;shape=partialRectangle;right=0;" vertex="1" parent="1">
          <mxGeometry x="1410" y="1010" width="100" height="30" as="geometry" />
        </mxCell>
        <mxCell id="qHw1RcTZy6Dsvkf9iHYT-129" style="edgeStyle=orthogonalEdgeStyle;rounded=0;orthogonalLoop=1;jettySize=auto;html=1;entryX=1;entryY=0.5;entryDx=0;entryDy=0;exitX=0;exitY=0.5;exitDx=0;exitDy=0;strokeColor=#660000;strokeWidth=2;" edge="1" parent="1" target="qHw1RcTZy6Dsvkf9iHYT-70">
          <mxGeometry relative="1" as="geometry">
            <mxPoint x="1849" y="618" as="sourcePoint" />
            <mxPoint x="1854" y="390" as="targetPoint" />
            <Array as="points">
              <mxPoint x="1849" y="391" />
            </Array>
          </mxGeometry>
        </mxCell>
        <mxCell id="qHw1RcTZy6Dsvkf9iHYT-130" value="Http Reponse" style="edgeLabel;html=1;align=center;verticalAlign=middle;resizable=0;points=[];" vertex="1" connectable="0" parent="qHw1RcTZy6Dsvkf9iHYT-129">
          <mxGeometry x="-0.093" y="-2" relative="1" as="geometry">
            <mxPoint as="offset" />
          </mxGeometry>
        </mxCell>
        <mxCell id="qHw1RcTZy6Dsvkf9iHYT-133" value="" style="endArrow=classic;html=1;rounded=0;entryX=0.657;entryY=0.963;entryDx=0;entryDy=0;entryPerimeter=0;strokeColor=#660000;strokeWidth=2;" edge="1" parent="1" target="qHw1RcTZy6Dsvkf9iHYT-98">
          <mxGeometry width="50" height="50" relative="1" as="geometry">
            <mxPoint x="1790" y="901" as="sourcePoint" />
            <mxPoint x="1840" y="851" as="targetPoint" />
          </mxGeometry>
        </mxCell>
        <mxCell id="qHw1RcTZy6Dsvkf9iHYT-136" value="返回成功" style="edgeLabel;html=1;align=center;verticalAlign=middle;resizable=0;points=[];" vertex="1" connectable="0" parent="qHw1RcTZy6Dsvkf9iHYT-133">
          <mxGeometry x="-0.0611" y="1" relative="1" as="geometry">
            <mxPoint as="offset" />
          </mxGeometry>
        </mxCell>
        <mxCell id="qHw1RcTZy6Dsvkf9iHYT-134" value="" style="endArrow=classic;html=1;rounded=0;exitX=0.25;exitY=0;exitDx=0;exitDy=0;entryX=0.325;entryY=0.96;entryDx=0;entryDy=0;entryPerimeter=0;strokeWidth=2;strokeColor=#660000;" edge="1" parent="1" source="qHw1RcTZy6Dsvkf9iHYT-73" target="qHw1RcTZy6Dsvkf9iHYT-95">
          <mxGeometry width="50" height="50" relative="1" as="geometry">
            <mxPoint x="1400" y="830" as="sourcePoint" />
            <mxPoint x="1450" y="780" as="targetPoint" />
          </mxGeometry>
        </mxCell>
        <mxCell id="qHw1RcTZy6Dsvkf9iHYT-135" value="返回成功" style="edgeLabel;html=1;align=center;verticalAlign=middle;resizable=0;points=[];" vertex="1" connectable="0" parent="qHw1RcTZy6Dsvkf9iHYT-134">
          <mxGeometry x="-0.1355" y="-4" relative="1" as="geometry">
            <mxPoint as="offset" />
          </mxGeometry>
        </mxCell>
      </root>
    </mxGraphModel>
  </diagram>
</mxfile>
